<svg width="377" height="243" viewBox="0 0 377 243" fill="none" xmlns="http://www.w3.org/2000/svg">
<g clip-path="url(#clip0)">
<mask id="mask0" mask-type="alpha" maskUnits="userSpaceOnUse" x="100" y="0" width="175" height="248">
<path d="M167.814 193.911L168.302 193.785L168.586 193.688L170.434 192.992L172.698 192.192L174.45 191.587L175.443 191.277L176.623 191.349L177.395 191.334L177.717 191.507L178.686 192.142L179.313 193.122L180.614 193.277L182.02 193.237L182.926 193.23L183.896 193.994L184.159 194.196L184.671 194.441L186.267 194.304L186.495 193.879L186.627 193.558L187.07 193.079H187.589L187.911 193.277L188.264 193.724L188.44 194.099L188.835 194.21L189.216 194.228L189.652 194.21L190.005 194.102L190.427 193.655L191.137 193.551L191.563 194.084L192.096 194.719L193.366 195.511L193.788 195.537L194.051 195.01L195.228 193.709L195.81 193.663L195.976 194.167L197.039 194.704H197.35L197.7 194.531L198.15 194.138L198.105 193.302L198.205 192.999L198.461 192.282L198.7 191.778L198.87 191.504L199.16 191.169L201.068 189.255L201.441 189.071L201.833 189.064L202.22 189.147L203.051 189.381L203.674 189.421L204.204 189.021L204.481 188.588L204.674 188.239L204.806 187.954L204.986 187.59L205.145 187.287L205.401 186.938L206.592 185.921L208.008 184.357L208.565 183.672L208.738 183.247L208.662 182.656L208.925 182.433L209.977 182.483L210.631 182.818L210.971 183.089L213.92 184.955L215.342 185.424L215.889 185.19L216.609 185.983L216.969 186.689L217.554 189.421L218.115 190.372L219.157 189.932L219.399 189.453L223.002 190.664L223.56 191.262L223.767 191.601L224.224 192.048L225.176 192.372L225.681 192.253L225.432 191.817L226.284 191.151L226.983 191.533L227.229 191.864L226.71 193.861L226.73 195.598L226.27 196.362L226.291 196.928L226.651 197.252L226.98 197.605L227.097 198.24L226.723 198.542L226.232 198.841L226.138 199.162L226.249 199.515L226.426 199.825L228.181 201.274L228.579 201.307L228.869 201.177L229.108 200.899L229.219 200.557L229.011 200.337L228.599 200.229L228.395 199.991L228.416 199.688L228.641 199.371L229.112 199.054L231.13 198.914L231.199 199.461L230.811 200.607L230.912 200.91L231.382 200.993L231.666 200.885L232.653 200.409L234.117 200.042L235.242 201.054L235.221 201.382L235.491 202.658L237.817 202.334L237.769 201.195L238.118 200.406L238.271 200.748L238.547 202.089L238.859 203.775L239.022 205.13L238.845 205.772L237.966 207.905L236.969 213.636L235.948 219.496L235.754 220.606L235.495 222.022L235.36 222.793L233.11 235.865L231.843 243.275L230.967 247.592L230.773 247.956L230.777 247.549L230.32 247.055L229.856 246.727L229.576 246.533L228.402 245.524L228.215 245.203L228.101 244.922L227.983 244.54L227.838 244.082L227.564 243.527L226.813 242.547L225.55 241.484L225.283 241.347L224.989 241.314L224.359 241.53L224.11 241.732L223.317 242.233L223.013 242.37H222.625L221.49 241.93L219.828 241.195L220.569 239.984L221.206 238.968L222.085 237.555L223.778 234.834L224.276 234.027L229.195 226.059L228.752 225.215L228.437 225.262L227.381 224.412L227.177 223.9L227.035 223.323L225.945 222.303L225.37 222.174L225.083 222.256L224.768 222.458L222.106 222.188L221.85 222.047L220.891 220.826L220.777 220.191L217.904 218.231L216.228 219.013L214.449 219.507L213.21 220.227L210.732 220.026L210.012 219.056L208.471 218.364L207.665 218.397L206.274 218.224L206.132 217.798L206.145 217.362L206.004 217.085L205.595 217.251L204.359 218.31L203.463 219.633L203.2 220.48L202.604 220.498L201.881 220.357L200.628 220.923L198.382 222.267L197.354 222.159L196.952 222.033L195.197 221.42L193.207 220.916L191.878 221.399L190.005 222.138L189.046 222.379L188.752 221.601L188.295 220.808L187.717 220.833L187.319 220.963L186.308 220.386L185.869 220.026L185.716 219.755L185.481 218.537L185.917 218.328L186.253 217.86L186.53 217.052L186.073 213.776L185.467 212.677L184.55 212.046L183.955 212.623L183.127 213.038L181.421 212.194L180.365 211.463L180.123 211.189L180.414 209.801L180.559 209.538L180.985 209.149L180.559 208.298L179.943 207.426L179.617 207.051L179.552 206.586L179.434 205.682L178.039 204.341L177.191 204.262L176.63 204.42L175.363 204.056L174.979 203.22L171.985 201.216L170.022 200.658L169.662 200.334L169.455 199.948L169.064 199.115L169.327 198.65L169.562 197.984L168.956 197.335L168.586 196.921L168.261 195.811L167.987 194.729L167.814 193.911Z" fill="black"/>
<path d="M163.657 100.129L163.245 100.057L161.058 100.72L159.22 100.936L158.545 101.102L158.185 101.592L157.939 101.956L156.558 102.962L156.118 102.752L155.64 102.37L155.173 101.92L154.882 101.794L153.349 101.671L151.116 100.983L150.57 100.799L150.099 100.727L150.078 101.152L150.289 102.529L150.348 103.614L150.106 103.801L149.202 103.708L148.562 103.643L147.762 103.747L147.375 103.852L146.316 104.436L146.025 104.475L144.81 104.504L144.606 104.381L144.066 103.859L143.764 103.506L143.096 102.612L142.972 102.244L143.228 101.653L143.266 101.199L143.183 100.774L142.965 100.219L142.75 99.808L142.601 99.4188L142.539 99.062L142.601 98.7088L142.82 98.2764L142.892 97.1411L142.072 96.9717L141.781 96.8708L141.525 96.633L141.314 96.0383L141.262 95.5878L141.245 95.1121L141.172 94.085L140.964 93.8327L140.313 93.4687L139.981 93.4182L136.669 94.0273L136.257 94.1606L135.945 94.2003L134.45 94.1318L133.276 92.4163L133.176 92.0703L133.18 91.6775L133.176 90.463L133.079 89.9044L131.809 87.1041L131.504 86.8085L130.777 86.3256L130.642 84.3723L131.428 84.0984L131.972 84.138L132.484 84.329L133.152 83.7488L133.18 83.2046L133.003 82.6964L132.743 82.0765L132.975 81.7125L135.004 81.6333L136.021 81.8495L136.506 82.1018L136.793 82.1847L137.06 82.0333L137.465 79.5033L137.323 78.9051L137.129 78.4149L136.921 78.087L136.205 77.0742L135.668 76.9193L135.357 76.7535L134.491 76.0327L131.868 73.2504L131.563 72.9189L131.283 72.6053L130.424 71.5926L129.978 71.016L128.919 70.7709L128.721 69.4014L129.241 69.2392L129.569 69.0266L129.877 68.6806L130.085 68.1292L130.165 67.603L130.317 66.8174L130.5 66.5471L131.314 65.9488L131.695 65.8263L132.176 65.6785L132.602 64.9829L132.667 65.0442L132.688 65.6821L132.629 66.5759L132.148 66.4534L131.826 66.2732L131.487 66.5002L131.335 67.185L131.387 67.9238L132.127 68.3202L132.913 68.3851L133.754 68.1725L133.945 67.9274L134.125 66.3849L134.024 65.6208L133.82 64.0279L133.647 61.8907L133.526 60.8384L132.84 59.7788L132.058 59.195L131.324 58.9607L131.321 58.4958L131.944 57.6921L132.896 57.5155L134.952 56.8776L138.396 53.8935L138.479 53.4467L138.721 53.6449L138.867 53.908L138.967 54.1999L138.995 54.5026L139.002 55.0432L139.043 55.436L139.119 55.8973L139.313 56.6253L139.514 57.011L139.718 57.2849L139.992 57.5516L140.313 57.7606L140.729 57.984L141.099 58.1354L141.608 58.4021L141.819 58.6652L141.885 59.0436L141.875 59.6815L141.85 60.168L141.781 60.6618L141.663 61.051L141.445 61.4402L141.186 61.7538L140.774 62.1791L140.493 62.3845L139.815 63.1053L139.459 63.5341L139.116 64.2766L138.953 64.7883L138.846 65.3001L138.721 66.0785L138.673 66.4858L138.642 67.2354L138.479 67.8157L137.936 68.3779L137.596 68.7239L137.326 69.2032L137.195 70.7421L137.188 71.2683L137.209 71.6034L137.323 72.3819L137.441 72.9189L137.558 73.3333L137.769 73.737L138.309 74.5983L139.652 76.4147L140.14 76.4976L140.566 76.4796L140.881 76.4435L141.857 76.4039L144.644 76.3859L145.339 76.3967L146.374 76.4508L146.817 76.3354L149.209 73.2468L149.393 72.144L149.808 71.4088L149.985 71.1457L150.348 70.7781L150.791 70.6952L151.103 70.8682L151.549 71.2791L151.85 71.38L152.089 71.1565L152.238 70.4502L152.525 69.6176L152.875 69.4915L153.346 69.3293L153.726 69.1419L154.048 68.6806L154.149 68.3851L154.315 67.9634L155.897 66.3957L156.291 66.2876L157.139 66.3236L157.89 66.3849H158.7L159.091 66.3669L159.445 66.2624L159.739 66.1146L160.023 65.8911L160.244 65.6172L160.41 65.3542L160.857 64.6874L161.293 64.2009L162.013 64.8388L162.785 65.5163L163.062 65.729L163.65 66.1326L164.398 66.5975L164.782 66.8498L165.062 67.0732L165.395 67.4517L165.523 67.7328L165.595 68.0968L165.602 68.4175L165.595 69.5311L165.661 70.2483L165.966 70.6376L165.633 72.281L164.678 74.7641V75.1137L164.824 75.384L165.035 75.6471L166.187 76.8796L166.942 76.2706L167.118 75.9786L167.447 75.2759L167.752 74.8614L168.032 74.6704L168.302 74.7893L168.479 75.1641L168.517 75.6831L168.351 75.9714L168.029 76.3679L167.755 76.9049L167.683 77.2653L167.589 78.6888L167.634 79.1249L168.461 81.6873L168.967 81.7666L169.386 81.7594L169.929 81.6188L171.438 80.2601L171.874 79.8457L172.542 79.1573L173.345 78.3176L174.121 77.5067L174.045 77.777L173.972 78.2167L173.975 78.523L174.145 80.0944L174.328 80.4692L174.595 80.8043L174.754 81.3954L174.73 81.7738L174.086 82.3865L173.439 82.6892L172.954 82.9595L172.221 83.7776L171.847 84.4263L171.577 84.9165L171.355 85.1435L170.916 85.5075L169.23 86.8734L168.292 87.3275L167.842 87.3419L167.326 88.0087L167.191 88.5168L167.305 89.789L167.669 90.4125L167.548 90.7225L166.201 92.283L165.865 92.5425L165.298 92.7947L165.125 93.0002L164.914 93.2957L164.526 94.5354V95.1553L164.585 96.997L164.342 97.2528L163.854 99.0692L163.657 100.129Z" fill="black"/>
<path d="M232.393 96.179L231.521 95.624L229.15 93.6382L228.291 92.8309L227.17 92.3155L224.633 92.2651L223.899 92.5065L223.144 92.9534L222.874 93.0795L222.494 93.2417L220.403 93.3859H219.534L217.565 93.321L216.602 93.2634L216.052 93.2021L213.165 92.5462L212.764 92.3804L211.971 92.593L211.511 92.7876L211.14 93.0147L208.783 93.7175L208.496 93.7427L207.419 93.7391L207.011 93.4039L205.104 93.512L202.016 94.186L201.48 94.5788L201.22 94.8167L200.185 95.4654L199.887 95.4546L199.309 95.3284L198.098 94.759L196.942 93.1733L196.814 92.6471L196.786 92.2867L196.862 91.6416L198.056 90.2396L199.479 89.4828L199.832 89.1656L199.95 88.7151L199.981 88.3043L200.794 86.3437L201.448 85.1436L201.549 84.83L201.594 84.5381L201.666 84.0408L201.701 83.5542L201.815 83.1146L202.016 82.7361L202.67 81.709L203.383 82.0514L204.013 82.0442L204.415 81.8063L205.879 81.1648L206.685 80.9522L207.312 80.9918L208.004 81.1828L208.928 81.4243L209.275 81.5072L211.151 81.5216L212.148 82.0406L213.307 82.3974L215.536 82.0838L215.817 81.9613L216.308 81.7306L217.201 81.136L217.513 80.7359L217.925 80.6278L218.468 80.5521L219.891 80.3936L222.276 80.9846L223.857 81.6874L224.65 82.1054L225.01 82.3902L225.252 82.5595L225.54 82.6713L225.955 82.7686L226.415 82.6605L226.685 82.4334L226.993 82.2388L227.897 82.1127L228.458 82.2136L234.086 89.4792L238.298 94.9428L237.734 95.4185L237.343 95.624L236.588 95.8979L236.021 95.9447L235.187 95.9555L234.37 95.8618L233.484 95.7681L233.051 95.8474L232.573 96.06L232.393 96.179Z" fill="black"/>
<path d="M155.35 25.08L155.654 25.0007L158.268 23.4943L158.378 23.0438L158.503 22.5825L159.957 21.0436L160.715 20.2795L160.815 20.1931L160.805 20.2795L161.085 21.0039L161.542 21.3067L161.878 21.6382L162.061 21.959L162.826 23.4258L162.864 25.4873L162.84 26.4676L162.764 28.0137L162.632 28.6624L161.975 29.1165L161.667 29.4192L161.411 29.7616L160.635 31.6032L160.036 33.1205L158.946 32.1582L157.247 31.0878L155.495 29.7688L155.377 29.1309L155.485 28.6444L155.564 28.2659L155.592 27.8299L155.509 27.3397L155.239 26.4928L155.599 26.1504L155.471 25.6567L155.253 25.8945L155.281 25.3756L155.35 25.08Z" fill="black"/>
<path d="M176.128 64.6551L175.748 64.893L175.204 65.4119L174.986 65.9561L174.913 66.2913L174.917 66.7922L174.927 67.2463L175.346 68.7023L175.602 69.261L175.824 70.425L175.554 72.8289L174.962 73.8056L174.373 75.2111L174.117 77.5104L173.342 78.3213L172.539 79.1611L171.874 79.8494L171.438 80.2639L169.926 81.6262L169.382 81.7667L168.963 81.7739L168.454 81.6946L167.631 79.1322L167.582 78.6925L167.676 77.269L167.748 76.9122L168.018 76.3716L168.34 75.9751L168.51 75.6868L168.472 75.1679L168.295 74.793L168.025 74.6777L167.745 74.8687L167.437 75.2832L167.108 75.986L166.935 76.2743L166.18 76.8833L165.028 75.6544L164.813 75.3913L164.671 75.121L164.668 74.7714L165.627 72.2919L165.959 70.6485L165.654 70.2593L165.588 69.5421L165.595 68.4284L165.588 68.1041L165.516 67.7401L165.384 67.4626L165.055 67.0842L164.775 66.8607L164.391 66.6084L163.643 66.1435L163.058 65.7363L162.781 65.5236L162.009 64.8461L161.289 64.2082L161.912 63.9019L162.137 63.6352L162.262 63.109L162.383 63.0081L162.785 62.8639L163.314 62.763L164.003 62.6693L164.322 62.2729L164.903 61.0511L165.287 59.9663L165.083 59.6131L164.872 58.9284L164.744 58.3518L164.747 55.656L165.277 55.1767L164.512 53.3891L164.052 52.6287L163.64 52.2358L162.819 51.6376L162.446 51.4177L162.172 51.2988L161.878 51.1871L161.04 50.6357L160.452 49.886L159.971 48.8914L159.735 48.3147L159.676 47.8967L159.714 47.5435L159.829 46.7362L159.811 46.3253L159.756 45.983L159.528 45.6334L159.175 45.1901L158.911 44.8873L155.232 41.7267L154.142 40.9122L154.169 40.5986L154.121 39.5246L153.989 39.1354L153.359 38.8507L152.051 37.1677L151.355 35.499L150.756 35.6504L150.514 35.7657L150.67 35.0774L151.206 34.3602L151.241 33.5421L151.023 30.8283L151.906 30.3958L151.885 29.7291L151.636 28.8425L152.034 28.201L152.992 27.2135L154.716 26.226L155.097 26.2729L155.232 26.4963L155.505 27.3432L155.585 27.837L155.561 28.2695L155.481 28.6479L155.374 29.1344L155.492 29.7687L157.243 31.0878L158.943 32.1581L160.033 33.1204L159.559 34.7494L159.697 35.2179L160.362 35.5459L160.888 35.6972L161.649 36.8109L161.549 37.3911L161.096 37.6722L160.67 37.8704L160.535 38.2633L160.58 39.1895L160.618 39.5138L161.286 41.806L161.424 42.0727L161.777 43.6512L161.618 44.6783L161.597 45.3847L162.446 45.7739L162.747 45.7379L163.062 45.691L163.962 46.3289L164.934 47.4209L166.364 48.0336L166.841 48.0264L168.157 48.6391L168.766 49.0355L169.842 50.041L170.209 50.6573L170.988 51.4646L172.996 52.1493L174.142 52.3908L174.868 52.4016L174.778 53.4143L175.014 53.9333L175.377 54.2793L175.578 56.1569L175.491 57.3427L175.9 58.204L176.083 58.5139L176.44 59.7897L176.596 61.2493L176.516 62.9L176.128 64.6551V64.6551ZM155.253 25.8945L155.004 25.7899L155.062 25.098L155.35 25.0764L155.28 25.3683L155.253 25.8945V25.8945Z" fill="black"/>
<path d="M194.325 83.511H195.197L196.146 83.4786L196.485 83.3633L196.904 82.9777L197.108 82.574L197.336 82.0803L198.769 81.2297L199.063 81.118L199.434 81.154L199.908 81.2874L200.306 81.2982L200.583 81.1649L200.86 80.9306L201.736 81.6118L202.67 81.7091L202.016 82.7362L201.815 83.1146L201.701 83.5543L201.666 84.0408L201.594 84.5382L201.549 84.8301L201.448 85.1436L200.794 86.3438L199.981 88.3043L199.95 88.7152L199.832 89.1657L199.479 89.4828L198.056 90.2396L196.862 91.6416L196.748 91.7245L196.326 92.1569L196.107 92.5318L196.004 92.9138L195.969 93.3318L195.886 95.2059L196.602 96.0096L196.201 97.7791L196.004 98.0026L195.768 99.0153L197.315 99.7073L197.987 100.9L198.004 101.246L197.374 102.846L196.229 103.34L195.962 103.171L195.668 103.29L195.45 103.506L195.183 103.895L194.924 104.299L194.539 104.868L194.28 105.196L192.418 106.598L191.026 106.796L190.59 106.284L189.874 105.737L188.074 108.068L187.686 109.2L187.828 109.499L188.551 110.184L188.704 110.519L188.655 110.811L188.25 111.283L187.817 111.539L187.333 111.651L186.966 111.968L186.717 112.397L186.253 114.008L186.166 114.383L186.211 114.682L186.665 115.475L186.063 116.527L185.443 116.61L184.723 116.484L184.401 116.3L184.204 116.019L183.747 115.413L182.861 114.765L182.525 114.595L182.231 114.491L181.798 114.318L181.455 114.166L181.03 113.889L180.195 113.312L179.718 112.836L179.611 112.411L179.856 111.431L180.081 111.056L180.6 110.48L180.355 109.013L180.078 108.429L179.808 107.921L179.188 105.87L178.202 104.645L177.194 104.374L176.083 103.232L175.491 103.369L174.803 103.873L174.609 104.41L174.585 104.843L173.962 105.528L173.667 105.82L173.401 105.957L172.909 106.158L172.574 106.133L170.722 104.695L169.766 104.349L168.558 102.745L168.413 102.194L168.814 101.715L169.084 101.34L168.849 99.9199L168.475 99.473L167.901 99.9271L167.094 100.327L166.551 100.233L165.917 100.035L164.18 100.417L163.924 100.637L163.917 100.424L163.657 100.129L163.854 99.0693L164.342 97.253L164.585 96.9971L164.526 95.1554V94.5356L164.913 93.2958L165.125 93.0003L165.298 92.7949L165.779 93.3823L166.53 94.6473L167.08 95.505L167.572 95.9735L167.977 96.0961L168.247 95.9735L168.506 95.8258L168.88 95.7069L169.244 95.8438L169.901 97.3034L171.189 98.5468L172.736 99.4478L172.975 99.6892L173.242 100.421L173.522 100.662L175.221 100.226L177.094 100.003L177.548 100.378L177.98 100.677L178.326 100.435L178.565 99.5775L178.624 99.2676L178.897 97.5593L179.742 95.4294L180.182 94.8131L181.85 95.7285L182.123 95.9952L182.262 96.3375L182.29 96.7412L182.255 97.0655L182.148 97.4692L181.767 98.2152L181.712 98.5828L181.805 99.1919L182.02 99.6208L182.328 99.8694L182.805 100.01L183.235 99.9595L184.031 99.5703L184.273 99.3L184.332 98.9432L184.155 98.4278L184.214 97.9882L184.443 97.7251L184.83 97.5269L185.135 97.444L185.54 97.3971L185.928 97.4764L186.824 97.6242L187.866 96.5538L190.51 93.148L190.891 92.42L191.106 91.8002L191.068 91.0505L190.846 90.6217L190.621 90.2505L190.521 89.7315L190.531 88.2394L190.95 88.171L191.77 88.7007L191.954 89.126L192.217 90.1099L192.965 90.0847L193.297 90.009L193.57 89.8396L193.802 89.5513L193.965 89.2089L194.626 87.2231L194.713 86.8303L194.737 86.3942L194.574 84.2174L194.432 83.7561L194.325 83.511Z" fill="black"/>
<path d="M143.619 170.031L143.463 170.406L141.985 170.972L141.587 171.062L139.767 171.048L139.296 170.979L138.977 170.871L137.368 170.176L137.018 169.775L136.644 168.968L136.821 167.53L136.911 167.238L137.053 166.979L137.209 166.658L137.195 166.359L137.039 165.944L136.492 164.831L136.108 164.47L135.492 164.413L135.076 164.672L134.696 165.321L134.18 165.746L133.768 165.851L132.771 166.053L133.155 165.343L133.463 162.759L133.425 162.366L133.128 161.926L130.431 160.193L130.144 160.225L129.594 160.434L129.279 160.506L127.299 160.657L126.755 160.661L126.319 160.603L126.458 158.621L126.62 158.362L127.046 157.904L127.371 157.735L127.697 157.23L127.821 156.87L127.447 156.516L126.845 155.961L125.679 154.477L125.052 153.377L124.827 153.046L124.564 152.902L123.048 153.078L122.383 153.096H122.089L121.324 152.988L120.916 152.891L120.622 152.79L120.244 152.577L119.659 152.069L119.483 151.752L118.936 150.509L118.444 149.597L117.617 148.314L117.233 147.806L117.056 147.485L116.911 147.128L116.873 146.858L116.928 146.263L117.409 146.952L117.499 147.341L118.015 147.607L119.064 147.467L119.666 146.861L119.393 146.386L119.157 144.706L120.113 143.077L122.224 140.364L122.487 140.227L124.343 137.257L124.474 136.85L124.959 137.423L125.592 138.374L127.852 140.09L130.407 140.335L130.729 139.859L131.563 140.273L132.408 141.257L134.311 140.255L135.592 139.455L136.232 139.38L137.967 138.58L138.292 137.949L138.257 137.361L138.019 137.03L138.34 136.453L139.015 136.37L140.227 136.605L140.746 136.889L141.106 137.12L141.546 137.379L142.151 137.657L142.66 137.848L143.266 137.931L143.287 138.183L143.221 138.677L143.193 139.037L143.356 139.329L143.754 139.924L144.176 140.695L144.384 141.164L144.578 141.448L145.474 144.198L146.191 145.824L146.572 146.443L146.783 146.829L147.382 148.411L147.537 148.858L147.589 149.172L146.52 149.46L146.243 149.381L145.557 148.79L144.934 148.372L144.311 148.162L143.851 148.451L143.56 148.869L143.134 149.474L142.868 149.719L142.508 149.878L142.089 149.939L141.39 149.741L141.082 149.712L140.753 149.9L139.362 151.536L139.32 151.831L139.58 152.649L139.718 152.992L139.874 153.323L139.992 153.817V154.257L139.777 154.451L139.389 154.56L138.822 154.523L138.24 154.318L137.814 154.077L137.34 153.853L136.876 153.749L136.257 153.893L135.841 154.199L135.828 154.952L136.028 157.259L136.309 157.598L136.631 157.612L137.108 157.594L137.766 157.893L138.389 158.809L138.469 159.263L138.417 159.807L138.354 160.329L138.507 160.679L139.552 161.71L141.047 162.683L141.341 162.791L141.698 162.773L142.387 162.607L142.394 163.241L141.712 164.741L141.224 165.66L140.743 166.15L140.66 166.611L140.919 168.139L141.753 168.705L142.601 169.015L142.975 169.224L143.619 170.031Z" fill="black"/>
<path d="M176.128 64.655L176.516 62.8963L176.596 61.2456L176.44 59.786L176.083 58.5102L175.903 58.2003L175.495 57.3389L175.581 56.1532L175.384 54.2756L175.021 53.926L174.785 53.4106L174.875 52.3979L175.01 52.1564L175.498 51.4248L175.796 50.8698L175.498 50.3761L175.066 49.904L174.647 49.5183L173.899 47.8317L173.778 47.3884L173.491 46.8874L172.819 45.7954L172.632 45.5071L172.21 45.1143L171.75 44.9197L171.449 44.6386L172.352 43.3628L172.753 43.1321L174.273 43.2186L176.166 43.1033L175.388 40.7931L173.688 38.3172L172.047 36.0539L172.393 34.6736L172.525 34.2808L173.872 31.8733L174.647 31.43L174.938 31.3291L176.845 30.5795L179.655 29.1739L179.482 28.655L178.946 28.1036L178.839 27.6963L178.828 27.3936L178.866 27.08L179.064 26.7377L179.351 26.0241L178.839 25.4042L178.292 24.7843L178.098 24.4852L178.032 24.0311L178.129 23.6995L178.396 23.3283L178.641 23.732L178.887 23.995L179.299 24.1104L179.662 24.1464L180.929 24.168L182.065 24.1608L182.729 24.1284L183.158 24.2041L183.653 24.5212L186.035 27.1846L186.246 27.754L186.087 28.7703L185.914 29.1559L185.464 29.3614L184.678 30.3957L185.467 30.9543L185.955 30.9255L186.454 30.8318L186.769 30.7417L187.329 30.6155L187.769 30.5759L188.499 30.648L188.665 30.6912L188.575 31.8337L188.233 35.3439L187.98 35.8593L187.682 37.0594L187.554 38.5118L187.295 40.5589L186.197 42.9375L185.685 43.6547L183.865 45.9432L182.172 48.675L181.968 49.4895L181.881 49.6301L181.739 49.9328L181.563 50.3977L181.497 50.6932L181.158 53.1079L181.106 54.2323L181.23 54.9892L181.262 55.8685L181.057 56.4127L180.832 56.7119L180.355 57.1948L180.157 57.5516L180.05 57.93L179.936 59.0076L180.538 61.4691L180.701 61.8403L181.099 61.9664L181.5 61.6205L181.518 61.2096L181.497 60.8852L181.445 60.4023L181.632 60.132L182.13 60.0924L182.452 60.2473L182.605 60.5212L182.67 60.8528L182.681 61.3393L182.643 62.0349L182.525 62.644L182.12 62.9035L181.802 62.9467L181.58 63.2098V63.563L181.788 64.0928L182.324 64.8676L182.653 65.5884L182.802 66.0101L183.138 67.4264L183.055 67.9346L182.186 69.8195L181.84 70.3853L181.466 70.7493L180.853 71.0845L180.452 71.189L178.897 71.3872L178.828 71.1998L178.461 70.8538L177.856 70.8034L176.98 70.7421L176.793 70.3493L176.924 69.8123L177.257 69.2933L177.537 68.8212L177.644 68.2121L177.156 66.7669L176.876 66.1218L176.319 65.0118L176.128 64.655Z" fill="black"/>
<path d="M125.069 56.903L125.35 57.094L126.014 58.3445L126.236 59.2672L126.859 60.042L127.157 60.2438L127.451 60.3556L127.96 60.4961L128.379 60.8529L128.6 61.2097L129.13 62.1071L130.743 63.4153L130.93 64.1361L131.03 64.5974L131.899 65.156L132.601 64.983L132.172 65.675L131.691 65.8264L131.31 65.9453L130.493 66.5472L130.31 66.8175L130.158 67.6031L130.078 68.1293L129.867 68.6807L129.562 69.0267L129.23 69.2393L128.714 69.4015L128.908 70.771L129.971 71.0161L130.414 71.5927L131.272 72.6054L131.553 72.919L131.857 73.2505L134.481 76.0328L135.343 76.7536L135.654 76.9194L136.191 77.0707L136.907 78.0834L137.115 78.415L137.309 78.9015L137.451 79.5034L137.046 82.0334L136.783 82.1848L136.496 82.1019L136.007 81.846L134.99 81.6297L132.961 81.709L132.73 82.073L132.989 82.6893L133.169 83.2011L133.138 83.7453L132.47 84.3255L131.958 84.1345L131.418 84.0949L130.632 84.3688L130.767 86.3221L131.494 86.805L131.798 87.1006L133.065 89.9008L133.166 90.4558L133.169 91.674L133.162 92.0668L133.263 92.4128L134.436 94.1283L135.935 94.1968L136.246 94.1571L136.658 94.0238L139.971 93.4147L140.303 93.4652L140.954 93.8292L141.161 94.0814L141.234 95.1086L141.251 95.5807L141.303 96.0312L141.515 96.6294L141.771 96.8673L142.065 96.9718L142.885 97.1376L142.809 98.2765L142.591 98.7089L142.532 99.0585L142.591 99.4153L142.74 99.8045L142.954 100.215L143.173 100.77L143.256 101.196L143.218 101.65L142.961 102.241L143.083 102.608L143.754 103.499L144.055 103.852L144.595 104.374L144.322 104.464L143.982 104.598L143.512 104.782L141.165 105.942L140.898 106.122L139.701 107.42L139.791 107.87L141.144 110.948L141.303 111.215L141.556 111.489L141.836 111.676L142.155 111.849L142.39 111.939L142.359 112.173L142.269 112.541L142.082 112.97L141.812 113.172L141.48 113.323L141.186 113.503L139.587 114.869L139.386 115.111L139.227 115.464L138.185 117.932L137.115 119.998L136.935 120.275L136.859 120.621L136.831 120.945L136.89 121.601L136.977 122.016L137.063 122.308L137.181 122.592L137.527 123.021L138.167 123.681L137.974 124.211L136.378 125.54L134.166 126.272L133.782 126.326L133.387 126.301L133.076 126.171L132.058 125.515L130.085 124.83L128.659 123.562L128.199 123.364L127.87 123.382L127.323 123.522L127.063 123.306L126.745 122.682L126.828 122.452L126.149 122.3L125.471 122.326L124.827 121.248L125.336 119.756L125.395 119.659L125.513 119.338L125.814 118.221L125.762 116.718L125.689 115.662L125.433 114.228L125.319 113.842L125.239 113.471L125.121 112.39L124.973 110.285L124.986 109.218L125.236 108.508L125.319 107.949L125.146 107.092L124.62 104.753L123.422 104.043L122.688 103.827L123.083 102.857L124.28 102.266L124.824 102.36L125.156 102.562L125.616 102.381L126.707 101.008L126.845 100.28L126.786 99.8334L125.447 96.8781L124.46 95.4978L123.799 94.7554L123.495 94.3445L123.308 93.9445L123.495 92.4957L124.471 93.1372L124.786 92.5173L125.204 90.8883L125.426 88.2755L124.46 86.4446L123.951 86.1275L123.626 86.0914L120.774 83.6804L120.968 82.1848L120.919 81.8352L120.57 81.0171L118.964 79.5899L117.589 78.4438L118.763 74.7282L119.216 74.775L119.604 74.6417L119.839 74.3209L119.999 73.8668L119.877 73.3839L119.517 72.7388L119.452 72.4252L119.448 71.9207L119.455 71.535L119.666 71.135L120.809 71.7405L121.376 72.8721L121.573 73.4812L121.719 73.8272L122.044 74.0218L125.561 71.4089L125.575 71.0449L125.004 70.2665L125.841 68.6519L126.073 68.3852L127.209 67.9023L127.454 66.976L127.212 65.657L126.807 64.8028L126.385 64.0064L126.063 63.7505L125.308 62.9756L125.114 62.7198L125.035 61.9413L125.028 61.5377L124.938 61.0223L124.498 60.2366L124.166 59.9195L123.602 59.9303L123.498 59.1915L123.834 58.6581L124.028 58.5139L124.979 57.3282L125.069 56.903V56.903ZM124.602 121.558L124.931 121.753L125.218 122.434L125.738 122.6L125.547 122.78L123.162 123.219L122.473 123.418L122.615 122.881L124.118 121.414L124.263 121.374L124.443 121.443L124.602 121.558Z" fill="black"/>
<path d="M153.141 114.31L151.996 113.28L151.414 112.905L151.12 112.887L150.016 112.826L148.531 112.263L146.939 112.653L146.433 112.656L146.125 112.393L145.557 110.797L145.765 110.288L147.323 108.782L148.735 107.949L149.233 107.348L149.569 106.666L148.368 105.776L147.395 106.007L146.845 106.292L146.468 106.418L146.226 106.093L146.316 104.436L147.375 103.852L147.762 103.747L148.562 103.643L149.202 103.708L150.106 103.801L150.348 103.614L150.289 102.529L150.078 101.152L150.099 100.727L150.57 100.799L151.116 100.983L153.349 101.671L154.882 101.794L155.173 101.92L155.64 102.371L156.118 102.753L156.558 102.962L157.939 101.956L158.185 101.592L158.545 101.102L159.22 100.936L161.058 100.72L163.245 100.057L163.657 100.129L163.917 100.424L163.924 100.637L163.816 100.832L163.567 104.043L163.667 104.706L163.228 105.87L163.027 106.288L162.809 106.67L162.425 107.236L162.414 107.225L162.103 107.11L161.546 106.962L160.95 106.922H160.088L159.766 106.991L158.759 107.243L158.378 107.456L157.942 107.816L157.603 108.176L157.461 108.436L157.285 108.865L157.042 109.027L155.758 109.164H155.274L154.813 109.236L154.415 109.701L154.315 110.004L153.706 112.321L153.882 112.732L154.138 113.081L154.131 113.409L153.906 113.687L153.141 114.31Z" fill="black"/>
<path d="M161.293 64.2009L160.857 64.6875L160.41 65.3542L160.244 65.6173L160.023 65.8912L159.739 66.1146L159.445 66.2624L159.091 66.3669L158.7 66.3849H157.89L157.139 66.3237L156.291 66.2876L155.897 66.3957L154.315 67.9635L154.149 68.3851L154.048 68.6807L153.726 69.142L153.346 69.3294L152.875 69.4915L152.525 69.6177L152.238 70.4502L152.089 71.1566L151.85 71.38L151.549 71.2791L151.103 70.8683L150.791 70.6953L150.348 70.7782L149.985 71.1458L149.808 71.4089L149.393 72.1441L149.209 73.2469L146.817 76.3355L146.374 76.4508L145.339 76.3967L144.644 76.3859L141.857 76.404L140.881 76.4436L140.566 76.4796L140.14 76.4977L139.652 76.4148L138.309 74.5984L137.769 73.737L137.558 73.3334L137.44 72.9189L137.323 72.3819L137.209 71.6035L137.188 71.2683L137.195 70.7421L137.326 69.2032L137.596 68.7239L137.935 68.3779L138.479 67.8157L138.642 67.2355L138.673 66.4858L138.721 66.0786L138.846 65.3001L138.953 64.7884L139.116 64.2766L139.458 63.5342L139.815 63.1053L140.493 62.3845L140.774 62.1791L141.186 61.7538L141.445 61.4403L141.663 61.0511L141.781 60.6618L141.85 60.1681L141.875 59.6816L141.885 59.0437L141.819 58.6652L141.608 58.4021L141.099 58.1355L140.729 57.9841L140.313 57.7606L139.992 57.5516L139.718 57.2849L139.514 57.011L139.313 56.6254L139.119 55.8974L139.043 55.4361L139.002 55.0432L138.995 54.5027L138.967 54.1999L138.867 53.908L138.721 53.6449L138.479 53.4467L138.59 53.4431L138.874 53.3854L139.237 53.3025L140.037 52.9674L140.798 52.1204L141.989 49.1832L142.103 48.5273L142.989 47.3344L143.287 47.0316L143.546 46.8839L145.727 45.7378L147.191 45.4927L148.486 45.7522L148.721 46.2604L148.957 46.5847L149.216 46.8803L149.483 47.1145L151.321 48.3687L152.646 49.8067L152.916 50.0445L154 50.322L154.294 50.4482L154.574 50.6104L155.415 51.3636L155.955 52.8953L155.973 53.2701L155.786 54.1819L155.353 54.0017L154.889 54.0486L154.277 54.1387L153.179 54.5711L153.159 54.9892L153.989 57.2417L154.398 59.7789L154.813 59.905L155.381 59.7068L155.689 59.6599L156.039 59.8726L156.094 60.6762L156.177 61.2925L157.25 60.9934L158.063 60.4096L158.344 60.1212L158.731 59.6816L160.749 60.5609L161.781 61.5196L161.843 62.089L161.94 62.6476L162.262 63.0981L162.137 63.6279L161.912 63.8946L161.293 64.2009Z" fill="black"/>
<path d="M201.144 175.459L201.421 175.708L202.379 176.861L203.328 178.584L203.826 180.173L204.723 180.411L205.761 181.395L206.893 182.141L208.212 182.898L208.527 182.807L208.662 182.656L208.738 183.247L208.565 183.672L208.008 184.357L206.592 185.921L205.401 186.938L205.145 187.287L204.986 187.59L204.806 187.954L204.674 188.239L204.481 188.588L204.204 189.021L203.674 189.421L203.051 189.381L202.22 189.147L201.833 189.064L201.441 189.071L201.068 189.255L199.16 191.169L198.87 191.504L198.7 191.778L198.461 192.282L198.205 192.999L198.105 193.302L198.15 194.138L197.7 194.531L197.35 194.704H197.039L195.976 194.167L195.81 193.663L195.228 193.709L194.051 195.01L193.788 195.537L193.366 195.511L192.096 194.719L191.563 194.084L191.137 193.551L190.427 193.655L190.005 194.102L189.652 194.21L189.216 194.228L188.835 194.21L188.44 194.099L188.264 193.724L187.911 193.277L187.589 193.079H187.07L186.627 193.558L186.495 193.879L186.267 194.304L184.671 194.441L184.159 194.196L183.896 193.994L182.927 193.23L182.02 193.237L180.614 193.277L179.313 193.122L178.686 192.142L177.717 191.507L177.395 191.334L176.623 191.349L175.443 191.277L174.228 190.97L173.716 190.783L172.764 190.246L172.079 189.536L171.584 188.995L170.521 188.689L169.285 187.958L169.012 187.565L168.368 187.046L166.859 186.566L166.627 186.783L166.679 187.082L166.405 187.345L164.716 187.017L163.595 186.318L163.283 185.157L163.595 184.894L163.813 184.653L163.273 183.027L163.044 182.649L162.764 182.429L161.231 182.202L160.798 182.097L159.296 181.442L158.936 179.73L159.126 179.33L159.164 179.034L158.984 178.645L158.759 178.418L157.406 177.765L157.008 178.036L156.575 178.292L156.173 178.198L155.734 177.254L155.682 176.8L155.813 176.288L155.249 174.702L154.844 174.378L154.273 174.234L153.868 174.363L153.588 174.425L152.823 174.479L151.632 174.147L151.307 173.805L151.12 173.329L149.801 172.558L149.195 172.788L148.216 172.94L146.914 172.45L145.955 171.35L145.793 171.048L145.841 170.525L145.499 170.075L143.82 169.948L143.619 170.031L142.975 169.224L142.601 169.015L141.753 168.705L140.919 168.139L140.66 166.611L140.743 166.15L141.224 165.66L141.712 164.741L142.394 163.241L142.387 162.607L142.574 162.499L144.066 162.377L144.637 162.333H145.104L145.564 161.991L148.282 158.333L149.77 156.513L150.968 154.844L151.234 153.994L153.508 151.204L154.138 150.642L154.73 149.492L154.875 148.667L154.997 148.17L155.18 147.878L155.64 147.431L156.153 147.571L156.437 147.69L156.855 147.579L158.368 146.292L159.012 145.456L158.929 144.984L158.756 144.663L158.482 144.231L158.448 143.676L158.631 143.254L159.708 141.852L159.794 141.74L161.078 142.072L161.653 142.245L161.954 142.375L162.252 142.54L163.657 143.56L163.951 143.784L164.252 144.086L164.425 144.328L164.595 144.742L164.633 145.056L164.602 145.405L164.498 145.795L164.318 146.191L163.989 146.595L163.789 146.804L163.356 147.445L163.238 147.856L163.453 150.75L163.522 151.125L163.816 152.004L164.059 152.577L164.166 152.963L164.304 153.972L164.29 154.455L164.283 155.064L164.304 155.367L164.398 155.788L164.889 156.704L165.357 157.309L165.789 157.836L166.218 158.138L166.88 158.419L167.489 158.553L167.932 158.643L168.274 158.686L168.641 158.719L169.091 158.794L169.964 159.018L170.874 159.951L171.224 160.531L172.978 161.85L173.432 161.937L174.138 161.85L174.519 161.782L175.18 161.519L175.678 161.353L176.748 161.029L177.208 160.96L177.589 160.989L178.06 161.162L178.039 161.292L178.018 161.836L178.146 162.611L178.416 163.065L179.524 164.488L180.13 165.022L180.642 165.627L181.154 166.763L181.244 167.199L181.265 167.682L181.497 168.118L181.77 168.42L182.054 168.705L182.549 169.069L182.923 169.318L183.356 169.624L184.626 170.745L184.893 171.217L185.986 171.696L186.502 171.736L186.841 171.657L189.039 169.938L189.216 169.635L189.053 169.311L188.998 168.961L189.517 168.161L190.168 167.837L191.403 167.591L192.338 167.837L192.639 168.345L193.83 169.159L194.121 169.246L194.664 169.138L195.536 170.021L197.264 172.406L197.627 173.405L198.26 174.68L198.565 174.583L198.883 174.435L200.223 174.922L200.895 175.466L201.144 175.459Z" fill="black"/>
<path d="M186.665 115.475L186.211 114.682L186.166 114.383L186.253 114.008L186.717 112.397L186.966 111.968L187.333 111.651L187.817 111.539L188.25 111.283L188.655 110.811L188.704 110.519L188.551 110.184L187.828 109.499L187.686 109.2L188.074 108.068L189.874 105.737L190.59 106.284L191.026 106.796L192.418 106.598L194.28 105.196L194.539 104.868L194.924 104.299L195.183 103.895L195.45 103.506L195.668 103.29L195.962 103.171L196.229 103.34L197.374 102.846L198.004 101.246L197.987 100.9L197.316 99.7072L195.768 99.0153L196.004 98.0025L196.201 97.7791L196.602 96.0095L195.886 95.2059L195.969 93.3318L196.004 92.9137L196.107 92.5317L196.326 92.1569L196.748 91.7244L196.862 91.6415L196.786 92.2867L196.814 92.6471L196.942 93.1732L198.098 94.759L199.309 95.3284L199.887 95.4545L200.185 95.4653L201.22 94.8166L201.48 94.5788L202.016 94.1859L205.104 93.512L207.011 93.4039L207.419 93.7391L208.496 93.7426L208.783 93.7174L211.14 93.0147L211.511 92.7876L211.971 92.593L212.764 92.3803L213.165 92.5461L216.052 93.2021L216.602 93.2633L217.565 93.321L219.534 93.3859H220.403L222.494 93.2417L222.874 93.0795L223.144 92.9534L223.899 92.5065L224.633 92.265L227.17 92.3155L228.291 92.8308L229.15 93.6381L231.521 95.6239L232.393 96.1789L232.22 96.3051L231.753 96.8925L231.538 97.2313L231.189 98.0025L230.995 98.6296L230.645 99.6099L229.171 101.628L228.8 102.061L227.786 102.735L227.419 102.857L226.561 103.073L226.232 103.135L225.529 103.113L225.145 103.16L223.812 103.704L221.227 105.304L220.926 105.502L220.528 105.776L220.379 106.158V106.461L220.351 106.767L218.094 108.93L217.686 109.182L217.09 109.481L215.533 112.22L215.273 112.57L214.958 112.847L214.716 113.006L214.577 113.164L213.432 113.9L212.902 114.213L212.355 114.401L211.957 114.437L211.068 114.775L210.728 114.927L207.911 116.26L206.952 116.999L206.675 117.168L206.26 117.345L205.01 117.785L203.501 118.787L203.196 119.136L201.964 120.138L201.064 120.567L200.652 120.531L200.341 120.174L200.043 119.871L199.603 119.72L198.305 119.879L197.111 120.347L196.706 120.902L196.471 121.126L195.952 121.454L194.636 121.652L193.158 121.821L191.313 121.991L191.033 121.727L188.576 118.952L187.876 117.954L187.717 117.417L187.568 117.017L187.139 116.394L186.665 115.77V115.475Z" fill="black"/>
<path d="M162.414 107.225L162.425 107.236L162.809 106.67L163.027 106.288L163.228 105.87L163.667 104.706L163.567 104.043L163.816 100.832L163.924 100.637L164.18 100.417L165.917 100.035L166.551 100.233L167.094 100.327L167.901 99.927L168.475 99.4729L168.849 99.9198L169.084 101.34L168.814 101.715L168.413 102.194L168.558 102.745L169.766 104.349L170.722 104.695L172.574 106.133L172.909 106.158L173.401 105.956L173.667 105.819L173.962 105.528L174.585 104.843L174.609 104.41L174.803 103.873L175.491 103.369L176.083 103.232L177.194 104.374L178.202 104.645L179.188 105.87L179.808 107.921L180.078 108.429L180.355 109.013L180.6 110.479L180.081 111.056L179.856 111.431L179.611 112.411L179.718 112.836L180.195 113.312L181.03 113.889L181.455 114.166L181.798 114.318L182.231 114.491L182.525 114.595L182.861 114.765L183.747 115.413L184.204 116.019L184.401 116.3L184.723 116.484L185.443 116.61L186.063 116.527L186.665 115.475V115.77L186.558 116.094L186.308 117.486L185.554 121.781L184.418 122.398L182.092 121.789L181.365 121.98L181.009 122.225L180.701 122.293L179.988 122.131L179.669 121.854L179.386 121.032L179.316 120.693L179.237 120.174L179.057 119.655L178.78 119.424L178.389 119.215L176.582 118.736L176.132 119.093L175.623 119.904L175.415 120.444L175.668 120.794L176.087 120.902L176.699 122.239L176.758 122.571V123.313L176.378 123.515L176.056 123.511L175.457 123.533L173.148 124.758L172.878 124.978L172.58 125.292L172.272 125.544L171.66 125.948L171.321 126.074L170.954 126.103L170.929 125.169L171.341 123.428L171.642 121.872L171.739 120.398L171.819 120.023L171.995 119.59L172.124 119.316L172.39 118.877L172.736 118.527L173.003 118.192L173.266 117.749L173.307 115.273L173.193 114.563L172.459 114.159L172.106 114.22L170.607 116.92L170.126 120.376L170.199 121.407L170.344 122.354L170.275 122.895L169.514 124.827L169.15 124.967L168.434 124.993L167.631 126.167L167.669 127.18L167.381 128.323L167.257 128.597L166.824 129.375L166.374 130.024L166.025 130.323L166.063 130.244L166.218 129.8L166.17 129.458L165.606 129.134L165.398 128.86L165.381 128.766L165.737 127.84L165.775 127.389L165.827 125.685L166.301 124.679L166.288 124.232L166.142 123.886L165.672 123.147L165.332 122.74L164.934 122.618L164.429 122.794L164.09 123.36L163.685 123.551L163.335 123.511L160.563 122.398L160.279 122.163L160.511 121.508L161.511 119.536L161.76 118.743L161.584 118.329L161.49 117.788L161.431 117.313L161.286 115.702L162.047 113.979L162.674 109.816L162.473 107.387L162.414 107.225Z" fill="black"/>
<path d="M166.025 130.323L166.374 130.024L166.824 129.375L167.257 128.597L167.381 128.323L167.669 127.18L167.631 126.167L168.434 124.993L169.15 124.967L169.514 124.827L170.275 122.895L170.344 122.354L170.199 121.407L170.126 120.376L170.607 116.92L172.106 114.22L172.459 114.159L173.193 114.563L173.307 115.273L173.266 117.749L173.003 118.192L172.736 118.527L172.39 118.877L172.124 119.316L171.995 119.59L171.819 120.023L171.739 120.398L171.642 121.872L171.341 123.428L170.929 125.169L170.954 126.103L170.434 126.077L170.009 126.171L169.649 126.452L167.613 128.762L167.354 129.231L167.15 129.768L166.852 130.453L166.617 130.723L166.329 130.784L166.063 130.633L166.025 130.323Z" fill="black"/>
<path d="M262.846 125.631L263.071 126.773L263.244 127.49L263.892 129.317L264.165 129.89L264.397 130.161L264.723 130.283L265.224 130.222L265.654 130.2L265.948 130.402L266.72 131.527L266.844 132.121L267.312 133.534L267.516 133.927L267.775 134.118L268.08 134.215L268.582 134.417L268.776 135.257L268.011 136.471L267.679 136.605L266.741 137.358L265.82 138.291L263.587 140.475L261.071 142.93L261.206 143.661L262.03 143.582L263.902 143.924L264.311 144.162L264.543 144.591L265.318 145.834L266.027 146.227L268.315 148.876L268.938 149.395L269.274 149.543L269.821 149.777L270.209 150.08L270.468 150.909L270.32 151.208L269.994 151.521L269.859 151.813L269.935 152.278L270.119 152.812L270.455 153.612L270.662 153.918L271.337 155.482L273.071 160.366L274.002 163.851L274.394 166.442L274.501 166.925L274.736 167.3L274.802 167.375L274.591 167.372L272.486 167.941L271.881 168.089L271.753 167.775L271.701 166.705V166.409L271.808 164.95L271.901 164.517L272.047 164.168L272.144 162.96L271.94 161.479L271.334 159.789L270.659 158.553L270.008 157.709L269.7 157.472L269.177 156.661L268.547 155.392L268.392 154.945L268.312 154.57L268.108 154.206L266.927 153.767L265.737 154.297L264.882 154.884L264.594 155.093L263.449 156.268L263.296 156.808L263.151 157.064L261.953 158.549L261.375 159.061L260.507 159.49L259.904 159.638L259.52 159.677L259.15 159.627L258.821 159.511L258.544 159.295L258.184 158.809L257.755 158.041L257.616 157.764L257.426 156.953L257.194 156.589L256.921 156.412L256.201 156.207H255.886L255.456 156.855L255.308 157.209L255.02 158.048L255.366 159.191L255.671 159.245L256.083 159.324L256.505 159.948L246.865 159.919L242.954 159.897L240.998 159.89H239.108L238.714 159.648L237.873 159.414L236.523 159.065L234.428 159.638L233.224 160.193L232.355 160.149L231.881 159.746L230.572 159.414L230.178 159.353L229.735 159.324L229.323 159.176L228.762 158.719L228.046 158.077L227.71 157.583L227.613 156.243L227.956 156.066L228.174 155.731L227.997 154.877L227.959 154.794L228.188 154.311L228.998 153.691L229.354 153.482L230.129 152.52L229.669 151.709L229.029 151.395L228.419 151.767L225.754 152.289L223.196 152.314L221.054 151.266L220.659 150.426L220.24 149.446L219.16 148.051L218.253 148.044L217.949 147.622L218.613 147.027L219.361 146.544L220.413 145.896L220.863 145.6L222.722 144.299L223.009 143.87L223.691 143.744L224.359 143.56L224.719 143.395L225.785 141.874L225.751 141.416L225.643 140.789L225.744 139.614L226.457 138.363L227.042 138.205L227.61 138.201L228.233 138.086L228.139 136.994L227.911 136.648L227.703 136.161L228.17 135.52L229.344 135.084L229.742 135.329H230.448L232.134 133.786L233.702 133.148L234.366 133.033L235.252 132.583L235.782 132.042L235.816 131.678L235.723 131.166L236.01 130.845L237.315 130.77L238.025 131.152L238.973 131.018L239.371 130.665L240.559 130.489L241.185 130.763L241.562 131.083L241.649 131.581L243.816 131.137L245.505 130.763L246.259 131.098L246.934 130.489L247.699 129.714L248.589 129.447L249.281 129.508L250.299 129.58L251.002 129.346L251.247 128.863L251.424 128.625L253.407 126.805L253.719 126.643L256.194 126.344H258.07L259.233 126.939L259.437 127.224L259.468 127.609L259.724 127.836L260.417 127.303L260.891 126.766L261.223 126.337L261.49 126.139L262.528 125.735L262.846 125.631Z" fill="black"/>
<path d="M227.959 154.794L227.599 154.779L225.01 155.814L220.687 157.05L219.936 157.126L219.136 157.111L217.52 156.974L215.654 158.484L215.346 158.639L214.699 158.614L214.266 158.708L212.871 159.605L211.909 160.949L210.15 163.011L209.164 163.721L208.925 164.146L208.063 166.381L208.087 166.766L208.146 167.177L208.139 167.97L207.073 169.491L206.166 170.41L205.82 170.453L205.349 170.568L204.896 170.932L204.706 171.232L204.581 171.682L204.494 172.086L203.252 173.304L201.421 175.124L201.168 175.416L201.144 175.459L200.895 175.466L200.223 174.922L198.884 174.435L198.565 174.583L198.26 174.681L197.627 173.405L197.264 172.406L195.536 170.021L194.664 169.138L194.121 169.246L193.83 169.159L192.639 168.345L192.338 167.837L191.403 167.592L190.168 167.837L189.517 168.161L188.998 168.961L189.053 169.311L189.216 169.635L189.039 169.938L186.841 171.657L186.502 171.736L185.986 171.696L184.893 171.217L184.626 170.745L183.356 169.624L182.923 169.318L182.549 169.069L182.054 168.705L181.77 168.42L181.497 168.118L181.265 167.682L181.244 167.199L181.154 166.763L180.642 165.627L180.13 165.022L179.524 164.489L178.416 163.065L178.146 162.611L178.018 161.836L178.039 161.292L178.06 161.162L178.056 160.726L178.098 157.18L178.105 156.704L178.264 151.63L178.645 150.303L181.75 150.714L182.816 150.584L184.91 150.102L187.568 149.161L188.136 148.44L188.576 147.424L188.807 147.204L189.32 146.966L189.739 146.854L190.334 147.211L193.048 146.523L193.473 145.863L194.134 145.233L196.561 143.942L200.382 143.578L201.608 143.834L204.442 143.384L205.353 143.113L207.284 143.225L209.884 143.186L211.604 142.782L213.189 142.771H213.882L214.574 142.843L214.761 142.98L214.865 143.751L216.152 143.51L217.727 143.996L218.541 144.454L219.994 144.53L220.386 144.166L220.531 143.528L220.749 143.171L221.673 143.528L222.4 143.867L222.771 143.986L223.009 143.87L222.722 144.299L220.863 145.6L220.413 145.896L219.361 146.544L218.613 147.027L217.949 147.622L218.253 148.044L219.16 148.051L220.24 149.446L220.659 150.426L221.054 151.266L223.196 152.314L225.754 152.289L228.419 151.767L229.029 151.395L229.669 151.709L230.129 152.52L229.354 153.482L228.998 153.691L228.188 154.311L227.959 154.794Z" fill="black"/>
<path d="M142.387 162.607L141.698 162.773L141.341 162.791L141.047 162.683L139.552 161.71L138.507 160.679L138.354 160.33L138.417 159.807L138.469 159.263L138.389 158.809L137.766 157.893L137.108 157.594L136.631 157.612L136.309 157.598L136.028 157.259L135.827 154.952L135.841 154.199L136.257 153.893L136.876 153.749L137.34 153.853L137.814 154.077L138.24 154.318L138.822 154.524L139.389 154.56L139.777 154.451L139.992 154.257V153.817L139.874 153.323L139.718 152.992L139.58 152.65L139.32 151.831L139.362 151.536L140.753 149.9L141.082 149.712L141.39 149.741L142.089 149.939L142.508 149.878L142.868 149.719L143.134 149.474L143.56 148.869L143.851 148.451L144.311 148.163L144.934 148.372L145.557 148.79L146.243 149.381L146.52 149.46L147.589 149.172L147.537 148.858L147.382 148.411L146.783 146.829L146.572 146.443L146.191 145.824L145.474 144.198L144.578 141.448L144.384 141.164L144.467 141.185L144.751 141.193L145.111 141.167L145.969 140.947L146.527 140.717L147.433 140.039L147.773 139.679L148.545 138.897L148.925 138.738L149.483 138.72L149.953 138.699L150.379 138.641L150.66 138.522L150.736 138.198L150.687 137.707L151.449 136.352L151.663 136.068L153.796 135.138L154.187 135.008L158.067 134.399L158.479 134.525L158.635 134.846L158.555 135.448L158.358 135.736L158.07 135.978L157.894 136.406L158.202 136.77L158.828 136.936L159.258 136.918L159.656 136.821L160.608 136.1L161.829 134.572L161.805 134.129L161.681 133.772L161.781 133.466L162.556 132.125L163.11 131.289L164.145 129.919L164.498 129.469L164.931 129.094L165.27 128.827L165.381 128.766L165.398 128.86L165.606 129.134L166.17 129.458L166.218 129.8L166.063 130.244L166.025 130.323L165.464 131.793L165.305 132.129L165.09 132.42L164.733 132.857L164.564 133.192L164.322 134.067L164.086 135.048L164.166 135.361L164.214 135.714L164.252 136.554L163.463 137.981L163.21 138.342L162.896 138.727L162.511 139.03L162.266 139.192L161.899 139.405L161.31 139.819L160.531 140.414L160.164 140.746L159.794 141.74L159.708 141.852L158.631 143.254L158.448 143.676L158.482 144.231L158.756 144.663L158.929 144.984L159.012 145.456L158.368 146.292L156.855 147.579L156.437 147.69L156.153 147.572L155.64 147.431L155.18 147.878L154.997 148.17L154.875 148.667L154.73 149.492L154.138 150.642L153.508 151.204L151.234 153.994L150.968 154.844L149.77 156.513L148.282 158.333L145.564 161.991L145.104 162.333H144.637L144.066 162.377L142.574 162.499L142.387 162.607Z" fill="black"/>
<path d="M188.666 30.6914L188.499 30.6481L187.769 30.576L187.329 30.6157L186.769 30.7418L186.454 30.8319L185.955 30.9256L185.467 30.9544L184.678 30.3958L185.464 29.3615L185.914 29.1561L186.087 28.7704L186.246 27.7541L186.035 27.1847L183.653 24.5214L183.158 24.2042L182.729 24.1285L182.065 24.161L180.929 24.1682L179.662 24.1466L179.299 24.1105L178.887 23.9952L178.641 23.7321L178.396 23.3285L178.164 22.4022L178.434 20.384L178.859 19.7353L179.123 19.4866L179.351 19.101L179.604 18.6433L179.701 18.3298L179.697 17.9982L180.102 18.0234L181.878 17.9621L182.442 17.8757L182.84 17.782L183.304 17.6342L183.546 17.472L184.418 16.8305L184.567 16.416L185.322 15.6953L186.866 14.5168L190.659 11.7273L191.199 11.4426L194.242 10.2244L194.674 10.2749L195.1 10.2641L195.689 10.0695L197.637 8.89457L197.939 8.69275L198.309 8.29992L199.648 5.41314L199.645 5.1032L199.548 3.89227L199.219 3.67603L199.375 3.38051L199.648 3.25437L201.22 3.12823L202.13 3.21833L201.878 3.61477L201.459 4.11211L201.826 4.6491L202.155 4.70316L202.515 4.56261L203.563 3.83821L204.342 2.28851L206.007 1.48843L206.886 0.65591L206.547 0.392821L205.844 0.457692L205.384 0.767633L205.561 0.360385L206.038 0.0828797L206.454 0.0144043L207.852 0.169375L208.35 0.284702L211.961 1.79476L212.424 2.16237L212.743 2.4615L214.256 5.53207L214.311 5.88166L214.262 6.2817L214.02 6.75742L213.414 7.25477L212.584 7.75212L211.864 8.24946L211.334 9.05315L211.261 9.23695L210.14 9.84242L209.216 10.1019L206.955 10.7074L205.599 11.2119L204.913 11.5327L202.078 12.0516L200.59 14.6249L198.641 18.3189L197.094 19.6056L196.637 19.6236L194.893 20.0561L194.619 20.2326L193.923 21.5986L192.587 23.6384L191.573 25.5269L190.071 28.2298L189.69 28.774L188.738 30.4247L188.666 30.6914Z" fill="black"/>
<path d="M174.875 52.3979L174.148 52.3871L173.003 52.1456L170.995 51.4609L170.216 50.6572L169.849 50.0373L168.773 49.0354L168.164 48.6389L166.845 48.0263L166.367 48.0299L164.938 47.4208L163.965 46.3252L163.062 45.6873L162.747 45.7342L162.449 45.7702L161.601 45.3846L161.622 44.6746L161.781 43.6511L161.431 42.0725L161.293 41.8058L160.621 39.5137L160.583 39.1894L160.542 38.2631L160.677 37.8703L161.103 37.6721L161.556 37.3874L161.656 36.8071L160.895 35.6971L160.369 35.5421L159.704 35.2178L159.562 34.7493L160.036 33.1203L160.635 31.603L161.411 29.7614L161.667 29.419L161.975 29.1163L162.632 28.6622L162.764 28.0135L162.84 26.4674L162.864 25.4871L162.826 23.4256L162.061 21.9588L161.878 21.638L161.542 21.3065L161.085 21.0037L160.805 20.2793L160.815 20.1929L161.189 20.492L165.893 22.1786L166.305 22.2723L166.665 22.3228L167.053 22.3336H167.679L168.223 22.2795L168.589 22.2039L168.929 22.0957L168.749 22.33L168.427 22.4561L168.036 22.5138L167.118 22.5931L166.457 22.5102L164.654 23.9193L164.429 24.7302L164.633 25.3357L165.689 24.8924L166.457 25.5952L166.565 25.9484L167.461 25.9556L167.741 25.7538L167.984 25.3357L168.358 24.1284L168.953 22.5679L169.337 21.8254L169.818 20.2974L169.69 19.1225L169.714 18.5458L170.022 18.0305L170.4 17.4214L170.884 17.0934L172.567 16.7186L172.913 16.7366L173.529 16.9817L173.792 17.2808L174.993 17.7962L176.08 18.0845L177.769 18.0917L178.354 18.0016L178.877 17.9728L179.413 17.962L179.697 17.998L179.701 18.3296L179.604 18.6431L179.351 19.1008L179.122 19.4865L178.859 19.7351L178.434 20.3839L178.164 22.4021L178.396 23.3283L178.129 23.6995L178.032 24.0311L178.098 24.4852L178.292 24.7843L178.839 25.4042L179.351 26.0241L179.064 26.7377L178.866 27.08L178.828 27.3936L178.839 27.6963L178.946 28.1036L179.482 28.655L179.656 29.1739L176.845 30.5795L174.938 31.3291L174.647 31.43L173.872 31.8733L172.525 34.2808L172.394 34.6736L172.047 36.0539L173.688 38.3172L175.388 40.7931L176.166 43.1033L174.273 43.2186L172.754 43.1321L172.352 43.3627L171.449 44.6386L171.75 44.9197L172.21 45.1143L172.632 45.5071L172.819 45.7954L173.491 46.8874L173.778 47.3884L173.899 47.8317L174.647 49.5183L175.066 49.9039L175.498 50.3761L175.796 50.8698L175.498 51.4248L175.01 52.1564L174.875 52.3979Z" fill="black"/>
<path d="M214.716 113.006L214.688 113.139L214.695 120.762L214.702 124.059L214.716 127.858L214.726 136.979L214.737 140.771L214.744 142.789L214.761 142.98L214.574 142.843L213.882 142.771H213.189L211.604 142.782L209.884 143.185L207.284 143.225L205.353 143.113L204.442 143.384L201.608 143.834L200.382 143.578L196.561 143.942L194.134 145.233L193.473 145.863L193.048 146.523L190.334 147.211L189.739 146.854L189.32 146.966L188.807 147.204L188.576 147.424L188.136 148.44L187.568 149.161L184.91 150.101L182.816 150.584L181.75 150.714L178.645 150.303L178.264 151.63L178.105 156.704L178.098 157.18L178.056 160.726L178.06 161.162L177.589 160.989L177.208 160.96L176.748 161.029L175.678 161.353L175.18 161.519L174.519 161.782L174.138 161.85L173.432 161.937L172.978 161.85L171.224 160.531L170.874 159.951L169.964 159.018L169.091 158.794L168.641 158.719L168.274 158.686L167.932 158.643L167.489 158.553L166.88 158.419L166.218 158.138L165.789 157.836L165.357 157.309L164.889 156.704L164.398 155.789L164.304 155.367L164.283 155.064L164.29 154.455L164.304 153.972L164.166 152.963L164.058 152.577L163.816 152.004L163.522 151.125L163.453 150.75L163.238 147.856L163.356 147.445L163.789 146.804L163.989 146.595L164.318 146.191L164.498 145.795L164.602 145.406L164.633 145.056L164.595 144.742L164.425 144.328L164.252 144.086L163.951 143.784L163.657 143.56L162.252 142.54L161.954 142.375L161.653 142.245L161.078 142.072L159.794 141.74L160.164 140.746L160.531 140.414L161.31 139.819L161.899 139.405L162.266 139.192L162.511 139.03L162.895 138.727L163.21 138.342L163.463 137.981L164.252 136.554L164.214 135.714L164.166 135.361L164.086 135.048L164.322 134.067L164.564 133.192L164.733 132.857L165.09 132.42L165.305 132.129L165.464 131.793L166.025 130.323L166.063 130.633L166.329 130.784L166.616 130.723L166.852 130.453L167.15 129.768L167.354 129.231L167.613 128.762L169.649 126.452L170.009 126.171L170.434 126.077L170.954 126.103L171.32 126.074L171.66 125.948L172.272 125.544L172.58 125.292L172.878 124.978L173.148 124.758L175.457 123.533L176.056 123.511L176.378 123.515L176.758 123.313V122.571L176.699 122.239L176.087 120.902L175.668 120.794L175.415 120.444L175.623 119.904L176.132 119.093L176.582 118.736L178.389 119.216L178.78 119.425L179.057 119.655L179.237 120.174L179.316 120.693L179.386 121.032L179.669 121.854L179.988 122.131L180.701 122.293L181.009 122.225L181.365 121.98L182.092 121.789L184.418 122.398L185.554 121.782L186.308 117.486L186.558 116.094L186.665 115.77L187.139 116.394L187.568 117.017L187.717 117.417L187.876 117.954L188.576 118.952L191.033 121.727L191.313 121.991L193.158 121.821L194.636 121.652L195.952 121.454L196.471 121.126L196.706 120.902L197.111 120.347L198.305 119.879L199.603 119.72L200.043 119.871L200.341 120.174L200.652 120.531L201.064 120.567L201.964 120.138L203.196 119.136L203.501 118.787L205.01 117.785L206.26 117.345L206.675 117.168L206.952 116.999L207.911 116.26L210.728 114.927L211.068 114.775L211.957 114.437L212.355 114.401L212.902 114.213L213.432 113.9L214.577 113.164L214.716 113.006Z" fill="black"/>
<path d="M132.771 166.053L132.494 166.096L132.072 166.193L131.76 166.323L130.462 167.116L130.151 167.307L129.704 167.599L129.299 167.901L129.14 168.157L129.22 170.961L129.296 171.347L129.448 171.733L129.888 173.142L130.355 175.264L130.331 175.614L129.829 175.902L129.403 176.046L129.002 176.137L128.78 177.254L128.953 177.791L129.088 178.339L129.178 179.167L129.202 179.654L129.171 180.087L127.572 180.451L127.184 180.432L125.862 180.036L124.896 179.715L124.287 179.301L123.872 177.405L123.941 176.756L123.979 176.216L123.688 175.719L123.266 175.574L122.979 175.675L122.66 175.715L122.241 175.445L122.03 175.264L121.393 174.9L121.075 174.634L120.898 174.313L120.864 173.859L120.94 173.444L120.625 173.034L120.334 172.915L119.175 173.17L118.687 173.459L118.119 173.38L117.7 173.203L117.039 172.475L116.046 172.046L115.578 172.104L115.038 172.046L114.609 171.877L113.536 171.069L112.754 170.37L112.491 170.197L111.989 170.064L111.612 169.992L111.297 169.862L110.989 169.628L109.736 168.363L109.531 168.064L109.379 167.801L108.33 167.552L108.043 167.71L107.596 167.055L107.022 166.773L106.669 166.629L106.371 166.427L104.485 164.182L103.785 162.557L102.792 162.074L102.501 162.016L101.975 162.002L101.328 161.804L101.051 161.317L102.165 159.537L103.47 158.455L103.979 158.293L105.173 158.524L105.585 158.747L107.174 159.353L107.655 159.317L108.195 157.619L108.247 157.104L107.531 155.616L107.198 155.439L106.703 154.938L106.326 153.597L106.236 153.024L106.869 151.608L107.724 149.954L107.97 149.543L108.091 150.112L108.316 149.644L108.576 149.471L109.396 149.337L109.535 148.436L109.929 148.375L110.483 148.815L110.777 149.118L111.092 149.417L112.255 148.217L113.976 148.635L114.287 148.685L116.222 148.166L116.745 147.644L116.876 146.862L116.911 147.132L117.056 147.485L117.233 147.806L117.614 148.314L118.441 149.597L118.932 150.509L119.479 151.752L119.659 152.069L120.244 152.581L120.622 152.794L120.916 152.891L121.324 152.988L122.089 153.096H122.383L123.048 153.078L124.564 152.898L124.827 153.042L125.056 153.378L125.682 154.477L126.849 155.958L127.454 156.517L127.828 156.87L127.704 157.23L127.378 157.738L127.056 157.908L126.627 158.362L126.464 158.621L126.326 160.603L126.762 160.661L127.305 160.658L129.282 160.506L129.6 160.438L130.151 160.229L130.438 160.193L133.134 161.926L133.432 162.366L133.467 162.762L133.159 165.343L132.771 166.053V166.053ZM114.242 148.501L114.121 148.476L112.968 147.366L112.958 147.164L112.996 146.926L113.11 146.71L113.308 146.44L113.737 146.328L113.903 146.299L114.138 146.335L114.53 147.074L114.588 147.215L114.723 147.954L114.678 148.109L114.336 148.458L114.242 148.501V148.501Z" fill="black"/>
<path d="M200.86 80.9306L200.583 81.1648L200.306 81.2982L199.908 81.2874L199.434 81.154L199.063 81.118L198.769 81.2297L197.336 82.0802L197.108 82.574L196.904 82.9776L196.485 83.3632L196.146 83.4786L195.197 83.511H194.325L194.134 83.5831H193.84L193.65 83.3488L193.705 82.765L193.688 82.2172L193.456 81.9901L192.425 82.2893L192.11 82.5127L189.254 81.2549L189.171 78.8619L189.309 77.1464V76.804L189.254 76.4508L188.873 75.3841L188.683 74.9912L187.475 72.8144L187.125 72.7135L184.432 72.7027L184.141 72.8649L183.972 73.1532L183.671 73.6758L182.729 73.7587L180.756 73.1316L180.476 73.0379L180.154 72.7568L179.974 72.2342L179.41 71.6467L178.897 71.3873L180.452 71.189L180.853 71.0845L181.466 70.7493L181.84 70.3854L182.186 69.8195L183.055 67.9347L183.138 67.4265L182.802 66.0101L182.653 65.5885L182.324 64.8677L181.788 64.0928L181.58 63.563V63.2099L181.802 62.9468L182.12 62.9035L182.525 62.644L182.643 62.035L182.681 61.3394L182.67 60.8529L182.605 60.5213L182.452 60.2474L182.13 60.0924L181.632 60.1321L181.445 60.4024L181.497 60.8853L181.518 61.2096L181.5 61.6205L181.099 61.9665L180.701 61.8403L180.538 61.4691L179.936 59.0076L180.05 57.93L180.157 57.5516L180.355 57.1948L180.832 56.7119L181.057 56.4128L181.262 55.8686L181.23 54.9892L181.106 54.2324L181.158 53.1079L181.497 50.6933L181.563 50.3977L181.739 49.9328L181.881 49.6301L181.968 49.4895L182.431 49.5652L184.197 49.4932L185 49.1255L185.315 48.7039L187.219 47.5362L187.631 48.1525L187.956 49.0463L187.897 49.3886L188.994 50.268L190.503 50.8518L191.113 53.2881L192.148 57.4111L195.592 61.1592L195.844 61.2169L195.896 61.2421L196.09 61.4619L196.263 61.9485L196.824 64.7055L196.99 65.6425L196.938 66.0498L196.692 66.2588L196.073 66.2624L195.069 68.1545L194.872 72.09L194.889 74.447L195.647 75.5967L195.896 75.7949L195.952 75.8093L197.007 76.0075L197.883 76.0616L199.42 77.0166L199.288 77.55L199.278 77.9501L199.555 78.8979L199.732 79.2763L200.008 79.7953L200.306 80.3107L200.683 80.9233L200.86 80.9306Z" fill="black"/>
<path d="M143.619 170.031L143.82 169.948L145.499 170.075L145.841 170.525L145.793 171.048L145.955 171.35L146.914 172.45L148.216 172.94L149.195 172.788L149.801 172.558L151.12 173.329L151.307 173.805L151.632 174.147L152.823 174.479L153.588 174.425L153.868 174.363L154.273 174.234L154.844 174.378L155.249 174.702L155.814 176.288L155.682 176.8L155.734 177.254L156.173 178.198L156.575 178.292L157.008 178.036L157.406 177.765L158.759 178.418L158.984 178.645L159.164 179.034L159.126 179.33L158.936 179.73L159.296 181.441L160.798 182.097L161.231 182.202L162.764 182.429L163.044 182.649L163.273 183.027L163.813 184.653L163.595 184.894L163.283 185.157L163.595 186.318L164.716 187.017L166.405 187.345L166.679 187.082L166.627 186.783L166.859 186.566L168.368 187.046L169.012 187.565L169.285 187.957L170.521 188.689L171.584 188.995L172.079 189.536L172.764 190.246L173.716 190.783L174.228 190.97L175.443 191.277L174.45 191.587L172.698 192.192L170.434 192.992L168.586 193.688L168.302 193.785L167.814 193.911L167.731 193.771L167.478 193.407L165.152 191.554L164.429 191.05L164.069 191.388L162.985 190.725L162.885 190.311L162.868 189.987L162.809 189.662L162.632 189.24L162.407 188.866L162.079 188.455L161.798 188.343L161.504 188.422L161.096 188.714L160.826 188.819L159.714 188.325L159.393 187.907L158.527 187.204L156.876 186.058L155.907 185.932L155.741 186.397L155.609 186.804L155.135 187.197L154.754 187.154L154.55 186.898L154.187 186.692L153.841 186.545L153.138 186.451L152.632 186.267L151.428 185.507L150.621 184.919L148.929 184.754L148.451 184.865L147.977 184.699L145.81 182.98L144.848 181.607L144.211 180.667L143.993 180.407L142.494 179.917L141.099 179.553L138.846 179.6L138.749 181.38L138.164 181.744L136.79 182.155L136.482 182.133L136.222 181.982L135.834 181.571L134.343 181.211L134.194 181.506L133.578 181.715L132.989 181.827L132.203 181.856L129.798 180.872L129.164 180.083L129.195 179.654L129.171 179.167L129.081 178.338L128.946 177.791L128.773 177.254L128.991 176.136L129.393 176.046L129.815 175.902L130.32 175.614L130.345 175.268L129.877 173.142L129.438 171.732L129.289 171.347L129.213 170.961L129.13 168.157L129.292 167.905L129.697 167.602L130.144 167.31L130.459 167.119L131.757 166.326L132.072 166.197L132.494 166.096L132.771 166.053L133.768 165.851L134.18 165.746L134.696 165.321L135.076 164.672L135.492 164.413L136.108 164.47L136.492 164.831L137.039 165.944L137.195 166.359L137.209 166.658L137.053 166.979L136.911 167.238L136.821 167.53L136.644 168.968L137.018 169.775L137.368 170.175L138.977 170.871L139.296 170.979L139.767 171.048L141.587 171.062L141.985 170.972L143.463 170.406L143.619 170.031Z" fill="black"/>
<path d="M148.777 116.091L148.984 115.99L150.473 116.102L151.404 116.249L151.829 116.368L152.221 116.354L153.121 115.817L153.221 116.015L152.089 117.741L151.106 118.97L150.677 119.543L150.514 119.875L150.545 120.574L150.511 121.165L150.403 121.468L150.282 121.753L150.147 122.016L149.971 122.25L149.614 122.682L148.752 124.027L148.607 124.791L148.624 125.187L148.306 124.953L148.046 124.474L147.832 123.724L147.568 122.755L146.572 118.174L146.471 117.666L146.506 117.323L146.734 117.111L147.451 117.176L148.136 117.161L148.78 117.024L148.946 116.736L148.777 116.091Z" fill="black"/>
<path d="M153.121 115.817L152.221 116.354L151.83 116.368L151.404 116.249L150.473 116.102L148.984 115.99L148.777 116.091L147.918 115.676L146.052 115.19L144.955 113.543L143.823 112.397L143.314 111.957L143.013 111.845L142.397 111.957L142.165 111.863L141.847 111.69L141.566 111.503L141.314 111.225L141.155 110.959L139.801 107.881L139.711 107.43L140.909 106.129L141.172 105.949L143.519 104.789L143.989 104.605L144.332 104.472L144.606 104.382L144.81 104.504L146.025 104.475L146.316 104.436L146.226 106.093L146.468 106.418L146.845 106.292L147.395 106.007L148.368 105.776L149.569 106.666L149.233 107.348L148.735 107.949L147.323 108.782L145.765 110.288L145.557 110.797L146.125 112.393L146.433 112.656L146.939 112.653L148.531 112.263L150.016 112.826L151.12 112.887L151.414 112.905L151.996 113.28L153.141 114.31L152.588 115.067L152.646 115.359L153.121 115.817Z" fill="black"/>
<path d="M174.121 77.5068L174.377 75.2074L174.965 73.8055L175.557 72.8288L175.827 70.425L175.606 69.2609L175.35 68.7023L174.931 67.2463L174.92 66.7922L174.913 66.2912L174.986 65.9561L175.204 65.4119L175.748 64.8929L176.128 64.655L176.319 65.0118L176.876 66.1218L177.156 66.767L177.644 68.2121L177.537 68.8212L177.257 69.2933L176.925 69.8123L176.793 70.3493L176.98 70.7421L177.856 70.8034L178.461 70.8539L178.828 71.1998L178.898 71.3872L179.41 71.6467L179.974 72.2342L180.154 72.7567L180.476 73.0379L180.756 73.1316L182.729 73.7587L183.671 73.6758L183.972 73.1532L184.142 72.8649L184.432 72.7027L187.125 72.7135L187.475 72.8144L188.683 74.9912L188.873 75.384L189.254 76.4508L189.309 76.804V77.1464L189.171 78.8619L189.254 81.2549L192.11 82.5127L192.425 82.2892L193.456 81.9901L193.688 82.2172L193.705 82.765L193.65 83.3488L193.84 83.5831H194.135L194.325 83.511L194.432 83.7561L194.574 84.2174L194.737 86.3942L194.713 86.8302L194.626 87.2231L193.965 89.2089L193.802 89.5512L193.57 89.8396L193.297 90.0089L192.965 90.0846L192.217 90.1099L191.954 89.126L191.77 88.7007L190.95 88.1709L190.531 88.2394L190.521 89.7314L190.621 90.2504L190.846 90.6216L191.068 91.0505L191.106 91.8001L190.891 92.42L190.51 93.148L187.866 96.5538L186.824 97.6241L185.928 97.4764L185.54 97.3971L185.135 97.4439L184.83 97.5268L184.443 97.725L184.214 97.9881L184.155 98.4278L184.332 98.9432L184.273 99.3L184.031 99.5703L183.235 99.9595L182.805 100.01L182.328 99.8694L182.02 99.6207L181.805 99.1919L181.712 98.5828L181.767 98.2152L182.148 97.4692L182.255 97.0655L182.29 96.7412L182.262 96.3375L182.124 95.9951L181.85 95.7284L180.182 94.813L179.742 95.4293L178.898 97.5593L178.624 99.2675L178.565 99.5775L178.326 100.435L177.98 100.677L177.548 100.378L177.094 100.003L175.222 100.226L173.522 100.662L173.242 100.421L172.975 99.6892L172.736 99.4477L171.189 98.5468L169.901 97.3034L169.244 95.8438L168.88 95.7068L168.506 95.8257L168.247 95.9735L167.977 96.096L167.572 95.9735L167.08 95.505L166.53 94.6473L165.779 93.3823L165.298 92.7948L165.865 92.5425L166.201 92.2831L167.548 90.7225L167.669 90.4126L167.305 89.7891L167.191 88.5169L167.326 88.0087L167.842 87.342L168.292 87.3276L169.23 86.8735L170.916 85.5076L171.355 85.1436L171.577 84.9165L171.847 84.4264L172.221 83.7777L172.954 82.9596L173.439 82.6893L174.086 82.3866L174.73 81.7739L174.754 81.3955L174.595 80.8044L174.328 80.4692L174.145 80.0944L173.975 78.5231L173.972 78.2168L174.045 77.7771L174.121 77.5068Z" fill="black"/>
<path d="M148.486 45.7522L149.019 45.8999L149.462 45.6837L149.78 45.3485L149.985 44.9917L150.3 44.2349L150.4 43.8709L150.476 43.3303L150.483 42.9843L150.393 42.5591L150.251 42.0978L149.888 41.5968L149.403 40.6778L149.77 39.7155L150.327 37.7262L150.41 37.3946L150.556 36.4035V36.0107L150.521 35.7584L150.763 35.6431L151.362 35.4953L152.058 37.1639L153.363 38.847L153.993 39.1281L154.128 39.5173L154.176 40.5913L154.149 40.9049L155.235 41.7193L158.918 44.88L159.178 45.1828L159.531 45.626L159.763 45.9756L159.818 46.3144L159.832 46.7289L159.718 47.5325L159.68 47.8857L159.739 48.3038L159.971 48.884L160.455 49.8787L161.04 50.6247L161.878 51.1798L162.172 51.2915L162.446 51.4104L162.816 51.6303L163.636 52.2285L164.048 52.6213L164.508 53.3818L165.273 55.1693L164.747 55.6487L164.744 58.3444L164.868 58.9211L165.083 59.6058L165.287 59.959L164.903 61.0438L164.318 62.2656L164.003 62.662L163.314 62.7557L162.785 62.853L162.387 63.0008L162.262 63.0981L161.94 62.6476L161.843 62.089L161.781 61.5195L160.749 60.5609L158.731 59.6815L158.344 60.1212L158.063 60.4095L157.25 60.9934L156.177 61.2925L156.094 60.6762L156.038 59.8725L155.689 59.6599L155.381 59.7067L154.813 59.905L154.398 59.7788L153.989 57.2416L153.159 54.9892L153.179 54.5711L154.277 54.1386L154.889 54.0485L155.353 54.0017L155.786 54.1819L155.973 53.2701L155.955 52.8952L155.415 51.3636L154.574 50.6103L154.294 50.4482L154 50.322L152.916 50.0445L152.646 49.8066L151.321 48.3687L149.483 47.1145L149.216 46.8802L148.956 46.5847L148.721 46.2603L148.486 45.7522Z" fill="black"/>
<path d="M104.521 32L101.061 30.9476V22.65L104.163 19.2905L108.697 16.7L114.782 15L120.152 15.769L115.379 24.8762L109.771 29.0857L105.953 31.8786L104.521 32Z" fill="black"/>
<path d="M148.624 125.187L148.607 124.791L148.752 124.027L149.614 122.683L149.971 122.25L150.147 122.016L150.282 121.753L150.403 121.468L150.511 121.165L150.545 120.574L150.514 119.875L150.677 119.543L151.106 118.97L152.089 117.741L153.221 116.015L153.12 115.817L152.646 115.359L152.587 115.067L153.141 114.31L153.906 113.687L154.131 113.41L154.138 113.082L153.882 112.732L153.705 112.321L154.315 110.004L154.415 109.701L154.813 109.236L155.273 109.164H155.758L157.042 109.027L157.285 108.865L157.461 108.436L157.603 108.177L157.942 107.816L158.378 107.456L158.759 107.243L159.766 106.991L160.088 106.922H160.95L161.546 106.962L162.103 107.11L162.414 107.225L162.473 107.387L162.674 109.816L162.047 113.979L161.286 115.702L161.431 117.313L161.49 117.788L161.584 118.329L161.76 118.743L161.511 119.536L160.511 121.508L160.279 122.164L160.562 122.398L163.335 123.511L163.685 123.551L164.09 123.36L164.429 122.794L164.934 122.618L165.332 122.74L165.672 123.147L166.142 123.886L166.288 124.232L166.301 124.679L165.827 125.685L165.775 127.389L165.737 127.84L165.381 128.766L165.27 128.827L164.931 129.094L164.498 129.469L164.145 129.919L163.11 131.289L162.556 132.125L161.781 133.466L161.681 133.772L161.805 134.129L161.829 134.572L160.607 136.1L159.656 136.821L159.258 136.918L158.828 136.936L158.202 136.77L157.894 136.406L158.07 135.978L158.358 135.736L158.555 135.448L158.634 134.846L158.479 134.525L158.067 134.399L154.187 135.008L153.795 135.138L151.663 136.068L151.449 136.352L150.687 137.707L150.736 138.198L150.659 138.522L150.379 138.641L149.953 138.699L149.483 138.72L148.925 138.738L148.545 138.897L147.773 139.679L147.433 140.039L146.527 140.717L145.969 140.947L145.111 141.167L144.751 141.192L144.467 141.185L144.384 141.164L144.176 140.695L143.754 139.924L143.356 139.329L143.193 139.037L143.221 138.677L143.287 138.183L143.266 137.931L143.439 137.787L144.536 133.938L145.319 130.763L145.637 128.946L145.744 128.636L146.132 127.919L146.523 127.314L146.845 126.939L147.132 126.874L147.399 127L147.669 127.112L148.545 126.38L148.624 125.948L148.652 125.36L148.624 125.187Z" fill="black"/>
<path d="M143.266 137.931L142.66 137.848L142.151 137.657L141.546 137.38L141.106 137.12L140.746 136.889L140.227 136.605L139.015 136.37L138.34 136.453L138.019 137.03L138.257 137.361L138.292 137.949L137.967 138.58L136.232 139.38L135.592 139.455L134.311 140.255L132.408 141.257L131.563 140.274L130.729 139.859L130.407 140.335L127.852 140.09L125.592 138.374L124.959 137.423L124.474 136.85L124.142 136.659L123.623 136.23L123.879 135.826L125.108 135.012L126.818 132.738L127.281 132.608L128.289 131.267L128.469 130.629L128.507 129.746L129.832 127.533L129.116 127.706L128.694 127.887L128.022 128.359L127.61 128.64L126.918 128.708L126.513 128.69L126.208 128.517L126.053 127.57L126.222 127.054L126.589 126.82L127.24 126.741L127.627 125.436L127.295 125.187L126.582 124.913L126.094 125.389L125.841 125.721L125.606 126.528L125.388 127.051L125.076 127.422L124.273 126.348L124.104 125.861L124.066 124.225L124.228 123.684L125.488 123.115L126.361 123.147L126.759 122.697L127.077 123.317L127.337 123.537L127.884 123.396L128.212 123.382L128.673 123.576L130.099 124.849L132.072 125.533L133.09 126.189L133.405 126.323L133.799 126.348L134.183 126.294L136.395 125.562L137.991 124.232L138.181 123.702L137.544 123.043L137.195 122.61L137.077 122.329L136.991 122.037L136.901 121.623L136.842 120.963L136.869 120.639L136.946 120.293L137.126 120.016L138.195 117.951L139.237 115.482L139.393 115.129L139.593 114.887L141.193 113.521L141.487 113.341L141.819 113.19L142.089 112.988L142.276 112.555L142.366 112.188L142.397 111.957L143.013 111.845L143.314 111.957L143.823 112.397L144.955 113.543L146.052 115.19L147.918 115.676L148.777 116.091L148.946 116.736L148.78 117.024L148.136 117.161L147.451 117.176L146.734 117.111L146.506 117.323L146.471 117.666L146.572 118.174L147.569 122.755L147.832 123.724L148.046 124.474L148.306 124.953L148.624 125.187L148.652 125.36L148.624 125.948L148.545 126.38L147.669 127.112L147.399 127L147.132 126.874L146.845 126.939L146.523 127.314L146.132 127.919L145.744 128.636L145.637 128.946L145.319 130.763L144.536 133.938L143.439 137.787L143.266 137.931Z" fill="black"/>
<path d="M214.716 113.006L214.958 112.847L215.273 112.57L215.533 112.22L217.09 109.481L217.686 109.182L218.094 108.93L220.351 106.767L220.379 106.461V106.158L220.528 105.776L220.926 105.502L221.227 105.304L223.812 103.704L225.145 103.16L225.529 103.113L226.232 103.135L226.561 103.073L227.419 102.857L227.786 102.735L228.8 102.061L229.171 101.628L230.645 99.6099L230.995 98.6296L231.189 98.0026L231.538 97.2313L231.753 96.8925L232.22 96.3051L232.393 96.179L232.573 96.06L233.051 95.8474L233.484 95.7681L234.37 95.8618L235.187 95.9555L236.021 95.9447L236.588 95.8978L237.343 95.6239L237.734 95.4185L238.298 94.9428L238.658 94.7626L239.126 94.5392L239.915 94.4995L240.133 94.8815L240.562 95.3536L240.974 95.4546L241.639 95.2131L242.237 94.6112L242.774 94.0454L243.168 93.6886L243.618 93.4976L244.055 93.5156L246.879 93.9373L247.938 94.1896L248.53 94.3734L248.901 94.604L249.582 94.6941L250.842 94.2616L251.884 93.9373L252.213 93.876L252.708 93.858L253.348 94.0382L254.131 94.2112L254.477 94.0959L255.411 93.7535L255.92 93.5733L256.474 93.3967L256.803 93.3859L257.211 93.4147L257.744 93.5373L258.184 93.6526L258.717 93.6274L259.295 93.4724L259.856 93.1696L261.098 92.1389L263.065 92.3552L263.892 92.4705L264.913 92.8092L265.328 93.0976L265.875 93.6562L266.211 93.8184L266.471 93.84L265.976 94.4202L265.927 94.9031L266.027 95.2527L266.256 95.6708L266.747 96.1285L267.049 96.77L266.872 97.0475L266.367 97.3647L266.121 97.5701L265.366 98.3161L264.435 99.3036L264.11 99.7865L263.781 100.688L263.656 101.401L263.698 101.862L263.791 102.453L263.913 102.958L264.169 103.405L263.691 104.439L263.134 104.879L262.289 105.42L261.981 105.499L261.486 105.848L260.849 106.984L261.119 109.578L261.251 110.144L261.503 110.941L261.521 111.921L261.348 114.026L261.303 114.465L261.188 115.424L260.704 118.023L261.76 121.374L261.524 121.886L261.462 122.29L261.452 122.899L261.732 123.865L262.552 125.032L262.846 125.631L262.528 125.735L261.49 126.139L261.223 126.337L260.891 126.766L260.417 127.303L259.724 127.836L259.468 127.609L259.437 127.223L259.233 126.939L258.07 126.344H256.194L253.719 126.643L253.407 126.805L251.424 128.625L251.247 128.863L251.002 129.346L250.299 129.58L249.281 129.508L248.589 129.447L247.699 129.714L246.934 130.489L246.259 131.098L245.505 130.763L243.816 131.137L241.649 131.581L241.562 131.083L241.185 130.763L240.559 130.489L239.371 130.665L238.973 131.018L238.025 131.152L237.315 130.77L236.01 130.845L235.723 131.166L235.816 131.678L235.782 132.042L235.252 132.583L234.366 133.033L233.702 133.148L232.134 133.786L230.448 135.329H229.742L229.344 135.084L228.17 135.52L227.703 136.161L227.911 136.648L228.139 136.994L228.233 138.086L227.61 138.201L227.042 138.205L226.457 138.363L225.744 139.614L225.643 140.789L225.751 141.416L225.785 141.874L224.719 143.394L224.359 143.56L223.691 143.744L223.009 143.87L222.771 143.986L222.4 143.867L221.673 143.528L220.749 143.171L220.531 143.528L220.386 144.166L219.995 144.53L218.541 144.454L217.727 143.996L216.152 143.51L214.865 143.751L214.761 142.98L214.744 142.789L214.737 140.771L214.726 136.979L214.716 127.858L214.702 124.059L214.695 120.762L214.688 113.139L214.716 113.006Z" fill="black"/>
<path d="M238.118 200.406L237.769 201.195L237.817 202.334L235.491 202.658L235.221 201.382L235.242 201.054L234.117 200.042L232.653 200.409L231.666 200.885L231.382 200.993L230.912 200.91L230.811 200.607L231.199 199.461L231.13 198.914L229.112 199.054L228.641 199.371L228.416 199.688L228.395 199.991L228.6 200.229L229.011 200.337L229.219 200.557L229.108 200.899L228.869 201.177L228.579 201.307L228.181 201.274L226.426 199.825L226.249 199.515L226.138 199.162L226.232 198.841L226.723 198.542L227.097 198.24L226.98 197.605L226.651 197.252L226.291 196.928L226.27 196.362L226.73 195.598L226.71 193.861L227.229 191.864L226.983 191.533L226.284 191.151L225.432 191.817L225.682 192.253L225.176 192.372L224.224 192.048L223.767 191.601L223.56 191.262L223.002 190.664L219.399 189.453L219.157 189.932L218.115 190.372L217.554 189.421L216.969 186.689L216.609 185.983L215.889 185.19L215.342 185.424L213.92 184.955L210.971 183.089L210.631 182.818L209.977 182.483L208.925 182.433L208.662 182.656L208.527 182.807L208.212 182.898L206.893 182.141L205.761 181.395L204.723 180.411L203.826 180.173L203.328 178.584L202.38 176.861L201.421 175.708L201.144 175.459L201.168 175.416L201.421 175.124L203.252 173.304L204.494 172.086L204.581 171.682L204.706 171.231L204.896 170.932L205.349 170.568L205.82 170.453L206.166 170.41L207.073 169.491L208.139 167.97L208.146 167.177L208.087 166.766L208.063 166.381L208.925 164.146L209.164 163.721L210.15 163.011L211.909 160.949L212.871 159.605L214.266 158.708L214.699 158.614L215.346 158.639L215.654 158.484L217.52 156.974L219.136 157.111L219.936 157.126L220.687 157.05L225.01 155.814L227.599 154.779L227.959 154.794L227.997 154.877L228.174 155.731L227.956 156.066L227.613 156.243L227.71 157.583L228.046 158.077L228.762 158.718L229.323 159.176L229.735 159.324L230.178 159.353L230.572 159.414L231.881 159.746L232.355 160.149L232.407 160.333V169.57L234.176 169.566L235.671 169.484L238.215 170.067L239.049 169.801L239.596 169.559L240.645 170.136L241.171 170.648L242.421 172.648L242.151 174.28L242.601 175.888L241.431 176.295L240.323 176.198L239.731 175.704L237.873 174.522L234.674 175.398L233.726 176.036L233.072 176.515L231.265 176.569H230.393L229.52 176.756L229.496 177.845L229.468 179.953L229.451 180.861L229.409 183.269L229.364 185.388L229.337 186.689L229.33 187.712L229.849 188.394L231.106 189.878L233.875 192.113L234.193 192.189L234.602 192.275L235.429 192.679L235.771 193.061L236.242 194.758L236.111 195.245L235.917 195.724L235.647 196.077L235.685 196.542L237.038 199.162L237.564 199.479L238.229 200.161L238.118 200.406Z" fill="black"/>
</mask>
<g mask="url(#mask0)">
<rect x="74.5455" y="-7" width="196.212" height="132" fill="#FFEB3B"/>
<rect x="92.5758" y="125" width="185.606" height="50" fill="#3F51B5"/>
<rect x="100" y="175" width="160.152" height="68" fill="#F44336"/>
</g>
<path fill-rule="evenodd" clip-rule="evenodd" d="M82.577 43L13.3641 107.279C-4.80942 126.438 -4.09638 136.464 13.364 153.279L13.3724 153.268L82.577 217.539L100 194.558L30.9012 130.385L30.9825 130.279L30.8929 130.162L100 65.9813L82.577 43Z" fill="white"/>
<path fill-rule="evenodd" clip-rule="evenodd" d="M294.423 217.539L363.636 153.26L363.631 153.254L363.636 153.26C381.809 134.101 381.096 124.075 363.636 107.26L363.628 107.271L294.423 43L277 65.9813L346.099 130.154L346.018 130.26L346.107 130.377L277 194.557L294.423 217.539Z" fill="white"/>
<rect x="110" y="199.326" width="206.68" height="30" transform="rotate(-50 110 199.326)" fill="white"/>
</g>
<defs>
<clipPath id="clip0">
<rect width="377" height="243" fill="white"/>
</clipPath>
</defs>
</svg>
