<svg width="205" height="201" viewBox="0 0 205 201" fill="none" xmlns="http://www.w3.org/2000/svg">
<g clip-path="url(#clip0)">
<path fill-rule="evenodd" clip-rule="evenodd" d="M123.993 35.8055L40.5951 92.7387L102.549 165.227L131.347 146.889L152.083 171.873L120.385 192.057L112.144 197.46C110.674 198.424 109.101 199.187 107.467 199.754C98.6252 203.096 87.8124 200.555 81.6869 193.175L73.7238 183.581L74.0219 183.391L4.45548 101.996C-0.305971 96.4249 -1.17293 89.3923 1.48065 83.5211C2.77683 80.5748 4.95643 77.9063 7.97924 75.8427L113.541 3.77874C122.52 -2.35081 135.592 -0.858056 143.002 7.05802C144.182 7.95721 145.274 8.98078 146.252 10.1251L197.35 69.9114L200.95 73.9581C208.292 82.2104 206.849 93.9482 197.726 100.175L131.583 145.321L109.923 120.976L164.783 83.5311L123.993 35.8055Z" fill="black"/>
</g>
<defs>
<clipPath id="clip0">
<rect width="205" height="201" fill="white"/>
</clipPath>
</defs>
</svg>
