<svg width="134" height="127" viewBox="0 0 134 127" fill="none" xmlns="http://www.w3.org/2000/svg">
<ellipse cx="63.5" cy="63.5" rx="60.5" ry="63.5" fill="black"/>
<path fill-rule="evenodd" clip-rule="evenodd" d="M63.5908 0C28.525 0 0 28.4843 0 63.5C0 98.5157 28.525 127 63.5908 127C67.9514 127 72.1302 126.546 76.1273 125.73C74.583 125.004 74.3104 119.108 75.9456 115.842C77.6717 112.123 83.304 102.689 77.7625 99.5136C72.221 96.3386 73.7654 94.9779 70.4042 91.2586C67.0429 87.5393 68.4056 86.995 68.133 85.9971C67.4063 82.9128 71.4034 77.9236 71.676 77.47C71.8577 76.9257 71.8577 75.0207 71.676 74.4764C71.676 73.7507 69.2232 72.4807 68.5873 72.39C68.0422 72.39 67.588 73.3879 66.7704 73.5693C65.9528 73.7507 62.2282 71.3014 61.4106 70.5757C60.593 69.85 60.1388 68.4893 58.9578 67.4914C57.7768 66.3121 57.686 67.2193 55.9599 66.4936C54.2339 65.7679 48.6924 63.6814 44.3319 62.1393C39.9714 60.4157 39.608 57.8757 39.608 56.1521C39.4263 54.3379 36.8827 51.8886 35.7926 50.0743C34.5207 48.26 34.3391 45.8107 33.9757 46.355C33.6123 46.8993 36.2468 53.4307 35.7926 53.7029C35.3383 53.8843 34.3391 51.8886 33.0672 50.2557C31.7954 48.5321 34.3391 49.4393 30.3419 41.6379C26.3448 33.8364 31.6137 29.845 31.8863 25.7629C32.1588 21.6807 35.3383 27.305 33.6123 24.5836C31.8863 21.8621 33.6123 16.51 32.3405 14.5143C31.1595 12.5186 24.3462 16.7821 24.3462 16.7821C24.5279 14.7864 30.6145 11.5207 34.8841 8.43643C39.1538 5.35214 41.97 7.89214 45.422 8.89C48.965 10.0693 49.1466 9.70643 47.9657 8.43643C46.7847 7.25714 48.5107 6.89429 51.2361 7.25714C53.7797 7.71071 54.6881 10.9764 58.7761 10.5229C63.0458 10.2507 59.2303 11.3393 59.7754 12.5186C60.3205 13.6979 59.2303 13.5164 56.3233 15.24C53.598 17.0543 56.505 17.2357 61.3197 20.7736C66.1345 24.3114 64.7718 18.5057 64.1359 15.7843C63.5 13.0629 67.6788 15.24 67.6788 15.24C70.6767 17.2357 70.1316 15.4214 72.221 15.9657C74.3104 16.51 80.4878 21.7714 80.4878 21.7714C72.9478 25.7629 77.6717 26.1257 78.9435 27.1236C80.2153 28.1214 76.3999 29.845 76.3999 29.845C74.8555 28.3029 74.6738 30.0264 73.6745 30.5707C72.6753 31.115 73.4929 32.5664 73.4929 32.5664C68.4056 33.3829 69.4957 38.8257 69.6774 40.0957C69.6774 41.3657 66.2253 43.3614 65.4077 45.3571C64.5901 47.1714 67.6788 51.1629 65.9528 51.3443C64.2268 51.6164 62.8641 45.3571 54.0522 47.625C51.3269 48.3507 45.5129 51.3443 48.6924 57.4221C51.9628 63.6814 57.0501 55.6986 58.7761 56.6057C60.5021 57.5129 58.231 61.4136 58.5944 61.595C58.9578 61.7764 63.4092 61.7764 63.6817 67.1286C63.9542 72.4807 70.6767 71.9364 72.0393 72.1179C73.5837 72.1179 78.3984 68.1264 79.0343 68.0357C79.5794 67.7636 82.4864 65.4957 88.3913 68.8521C94.387 72.1179 97.294 71.6643 99.2926 73.1157C101.291 74.5671 100.019 77.3793 101.836 78.3771C103.653 79.375 111.466 78.105 113.464 81.1893C115.463 84.2736 105.47 100.149 102.381 101.872C99.2926 103.596 98.0208 107.678 94.7504 110.218C91.48 112.758 87.392 116.024 83.2132 118.473C79.4886 120.559 78.9435 124.46 77.2175 125.73C105.743 119.38 127 93.98 127 63.6814C127 28.6657 98.475 0.181428 63.4092 0.181428L63.5908 0ZM78.4893 59.5086C77.6717 59.7807 75.9456 61.5043 71.4034 58.7829C67.0429 56.0614 64.0451 56.6964 63.5908 56.2429C63.5908 56.2429 63.1366 55.245 65.1352 54.9729C69.1323 54.5193 74.0379 58.6921 75.2189 58.6921C76.3999 58.6921 76.9449 57.5129 78.9435 58.2386C80.9421 58.9643 79.3977 59.4179 78.4893 59.5086ZM57.5951 6.35C57.1409 6.07786 57.8677 5.62429 58.4127 5.08C58.6853 4.80786 58.5944 4.08214 58.867 3.81C59.8662 2.81214 64.4084 1.54214 63.5908 4.08214C62.5916 6.53143 58.3219 6.80357 57.5951 6.35ZM68.769 14.4236C67.0429 14.2421 63.5 13.97 64.0451 13.1536C66.7704 10.6136 63.2275 9.70643 60.9564 9.70643C58.6853 9.525 57.8677 8.255 58.9578 7.98286C60.0479 7.71071 64.4993 8.16429 65.3169 8.70857C66.0436 9.25286 70.0408 10.9764 70.3133 12.1557C70.495 13.335 70.3133 14.4236 68.769 14.4236ZM82.123 13.97C80.8512 14.7864 74.583 10.2507 73.4929 9.25286C68.4056 4.89857 65.4077 6.44071 64.4084 5.53357C63.4092 4.62643 63.6817 3.81 65.4077 2.44929C67.1338 1.08857 71.676 2.99357 74.4921 3.26571C77.2175 3.53786 80.4878 5.715 80.4878 8.255C80.6695 10.5229 83.4857 12.7907 82.2139 13.97H82.123Z" fill="white"/>
<rect x="73" width="13" height="3" fill="white"/>
</svg>
